<svg width="44" height="56" viewBox="0 0 44 56" fill="none" xmlns="http://www.w3.org/2000/svg">
<path fill-rule="evenodd" clip-rule="evenodd" d="M4.79492 3.58809V10.2745L10.1149 12.3653L21.8526 14L32.5501 12.4779L38.3325 10.115L38.7949 4.26326L31.5091 1.33778L12.0804 1L4.79492 3.58809Z" stroke="#CDCDCD"/>
<path d="M4.79492 4L18.2099 6H25.3404L38.7949 4.85707" stroke="#CDCDCD"/>
<path d="M31.7949 1.33346L22.7474 2L12.7949 1" stroke="#CDCDCD"/>
<path fill-rule="evenodd" clip-rule="evenodd" d="M18.7949 5.29423L22.6231 2L25.5389 5.29423L25.7949 12H18.7949V5.29423Z" stroke="#CDCDCD"/>
<path d="M26.2774 10.4177L38.7949 10.7345L26.2774 12.3406L22.5792 15L18.9948 12.3406L5.79492 10.7861L18.9948 10" stroke="#CDCDCD"/>
<path d="M15.5219 12.715L15.2912 16.8267L4.80315 19.5679L1 31.3324L5.49506 45.7235L11.7187 51.3201L22.5524 54.7465L33.5014 50.8633L39.4948 45.3806L43.4136 31.7892L39.8407 19.7964L29.0067 16.5981L29.0004 12.2393" stroke="#CDCDCD"/>
<path d="M15.7525 16.9414C15.7525 16.9414 23.7231 18.8834 28.7854 16.9414" stroke="#CDCDCD"/>
<path d="M39.2643 20.0255L26.3561 22.9952L17.0204 22.7666L5.61014 19.6826" stroke="#CDCDCD"/>
<path d="M19.9017 18.083L17.2509 22.309" stroke="#CDCDCD"/>
<path d="M24.1723 18.083L26.0678 22.309" stroke="#CDCDCD"/>
<path d="M17.2508 23.375L27.0474 49.8355" stroke="#CDCDCD"/>
<path d="M26.3559 22.9951L17.2508 49.8356" stroke="#CDCDCD"/>
<path d="M5.95566 45.838L17.251 50.1821L27.0472 50.3468L39.4949 45.3809" stroke="#CDCDCD"/>
<path d="M17.2508 50.5527L22.5527 54.7466L27.0474 50.7584" stroke="#CDCDCD"/>
</svg>
