<svg width="98" height="98" viewBox="0 0 98 98" fill="none" xmlns="http://www.w3.org/2000/svg">
    <path fill-rule="evenodd" clip-rule="evenodd" d="M48.272 89.162c-.54.1-1.172-.15-1.252-.738-.051-.384-.528-.459-.807-.329l-2.177 1.017c-.332.155-.671.364-1.02.473-.038.012-.075.025-.114.026l-.02-.023c-.068-.088-.093-.216-.114-.32-.141-.664-.12-1.4-.109-2.075a15.2 15.2 0 0 1 .144-1.75c1.276.408 2.551.812 3.83 1.21.435.136.705-.252.668-.603.605-.884 1.914-.946 2.515.025.147.236.503.372.752.197 1.848-1.299 3.695-2.598 5.544-3.896l-.386 6.355a13.505 13.505 0 0 1-4.91-1.221c-.2-.093-.509-.115-.665.085-.475.609-1.066 1.418-1.88 1.567zm8.179-8.364-6.056 4.256c-.502-.517-1.2-.84-1.934-.81a2.645 2.645 0 0 0-2.079 1.177 504.3 504.3 0 0 1-3.886-1.228c-.262-.084-.626.1-.675.385-.166.95-.262 1.911-.264 2.877-.002.817-.05 1.821.315 2.575.157.325.443.584.8.661.484.105.939-.172 1.36-.369l2.153-1.005c.398.646 1.235 1.005 1.984.96 1.077-.066 1.882-.83 2.536-1.626a14.862 14.862 0 0 0 5.536 1.204c.31.006.532-.258.55-.55l.487-8.033c.024-.398-.493-.71-.827-.474zM60.095 49.491c-7.09 1.798-14.026 4.143-20.941 6.516-3.483 1.195-6.962 2.406-10.463 3.55-1.783.581-3.579 1.132-5.413 1.529-.908.196-1.824.357-2.747.455-.442.048-1.606.316-1.902-.194-.319-.548.551-1.337.882-1.66a11.696 11.696 0 0 1 2.105-1.628c1.193-.723 2.487-1.266 3.655-2.028 1.167-.76 2.181-1.75 2.628-3.097.058-.175.1-.352.136-.53.01-.001.017.002.026 0a126.16 126.16 0 0 0 14.977-4.007 127.626 127.626 0 0 0 14.39-5.815 126.5 126.5 0 0 0 7.768-4.04.534.534 0 0 0 .135-.118c2.855.026 5.566 1.147 8.172 2.228 2.17.901 4.419 1.894 6.187 3.478.713.639 1.333 1.375 1.786 2.21-7.225.158-14.386 1.378-21.38 3.151zm-36.105-5.83-3.739-4.536c-2.145-2.602-4.862-5.41-5.126-8.958a6.344 6.344 0 0 1 .217-2.197.527.527 0 0 0 .278-.439c.072-1.063.844-1.904 1.606-2.574.9-.79 1.903-1.477 2.903-2.132 2.082-1.365 4.287-2.53 6.537-3.592 2.26-1.065 4.566-2.025 6.871-2.986 2.443-1.018 4.887-2.033 7.36-2.978 2.49-.95 5.009-1.83 7.572-2.564 2.085-.596 4.222-1.113 6.407-1.052 1.899.052 4.1.646 5.253 2.29.349.496.481 1.07.55 1.665.076.66.143 1.32.216 1.98a333.392 333.392 0 0 0 2.659 18.828c-4.873 1.273-9.475 3.352-14.129 5.245a231.475 231.475 0 0 1-14.634 5.384c-2.604.86-5.224 1.667-7.857 2.434-.826-1.373-1.93-2.588-2.944-3.817zm4.145 7.606c-.018-.961-.276-1.921-.675-2.796 4.74-1.387 9.44-2.918 14.082-4.604 2.433-.884 4.85-1.808 7.252-2.773 2.382-.957 4.741-1.97 7.125-2.922 2.559-1.023 5.154-1.962 7.82-2.666l.088.527c.107.608.216 1.217.326 1.825a124.894 124.894 0 0 1-13.38 6.485 126.315 126.315 0 0 1-14.549 4.982 126.27 126.27 0 0 1-8.09 1.942zm54.81-4.316c-.878-2.422-2.824-4.137-5.007-5.397-1.112-.641-2.28-1.175-3.46-1.675-1.44-.61-2.888-1.218-4.376-1.7-1.591-.516-3.252-.864-4.93-.851a326.943 326.943 0 0 1-3.296-22.816c-.07-.644-.106-1.305-.266-1.933-.557-2.196-2.964-3.481-5.04-3.853-2.167-.388-4.403-.088-6.526.42-2.598.62-5.149 1.483-7.657 2.397-2.59.945-5.143 1.984-7.688 3.04-2.444 1.013-4.894 2.018-7.305 3.108-2.343 1.06-4.65 2.212-6.84 3.562a38.345 38.345 0 0 0-3.175 2.176c-.912.7-1.84 1.464-2.394 2.492a3.87 3.87 0 0 0-.421 1.252.516.516 0 0 0-.224.286c-1.14 3.542.782 6.998 2.905 9.714 2.389 3.054 4.945 5.98 7.387 8.991.5.618.995 1.269 1.407 1.963a.582.582 0 0 0 .29.527c.322.632.567 1.3.667 2.013.22 1.552-.374 2.901-1.557 3.89-1.05.878-2.344 1.433-3.54 2.077-.72.388-1.41.817-2.057 1.319-.68.527-1.373 1.113-1.87 1.822-.444.632-.716 1.518-.238 2.21.427.618 1.19.761 1.895.733 1.882-.077 3.777-.492 5.592-.97.57-.151 1.137-.312 1.703-.478-.391.598-.857 1.145-1.302 1.71-.626.795-1.635 1.989-1.204 3.07.204.512.681.84 1.194 1.004.533.17 1.111.108 1.645.276.824.26 1.268 1.14 1.505 1.908.291.945.222 2.06.83 2.883.321.436.878.612 1.119 1.104.254.518.4 1.115.545 1.671.16.617.287 1.245.37 1.876.078.596.094 1.211.265 1.79.311 1.055 1.132 1.779 2.144 2.151 1.292.476 2.708.215 4.014-.057.645-.135 1.353-.313 2.008-.13.409.114.87.434.906.895.054.7 1.154.706 1.1 0-.081-1.04-.924-1.822-1.93-2.004-1.272-.231-2.517.292-3.77.422-.999.103-2.127.02-2.891-.712-.799-.764-.685-2.064-.85-3.075a16.16 16.16 0 0 0-.408-1.821c-.162-.567-.324-1.192-.63-1.702a2.066 2.066 0 0 0-.55-.605c-.205-.151-.43-.264-.578-.479-.267-.389-.313-.918-.384-1.372-.144-.916-.407-1.858-.957-2.62-.274-.379-.608-.716-1.019-.947-.487-.274-1.013-.344-1.56-.4-.378-.038-1.19-.122-1.115-.671.074-.556.566-1.14.896-1.573.727-.95 1.575-1.82 2.054-2.934.015-.034.02-.07.03-.106 2.525-.791 5.024-1.689 7.521-2.545C42.966 55.86 50 53.392 57.178 51.404c3.446-.955 6.931-1.794 10.447-2.456a30.78 30.78 0 0 1 .793 9.618c-.134 1.734-.441 3.436-.854 5.123-.41 1.67-.882 3.331-1.127 5.036-.269 1.873-.283 3.795.3 5.614.215.671 1.277.384 1.06-.292-1.056-3.296-.001-6.71.795-9.936.824-3.342 1.184-6.758.93-10.196a32.449 32.449 0 0 0-.815-5.161c3.417-.605 6.86-1.04 10.33-1.227.891-.049 1.783-.08 2.677-.096a.546.546 0 0 0 .246-.063c.325.48 1.209.2.985-.417z" fill="#CDCDCD"/>
</svg>
