<svg width="16" height="15" viewBox="0 0 16 15" fill="none" xmlns="http://www.w3.org/2000/svg">
<path fill-rule="evenodd" clip-rule="evenodd" d="M8.11469 13.0742C8.04125 13.0438 7.95875 13.0438 7.88532 13.0742L3.74965 14.7852C3.54276 14.8708 3.31841 14.7078 3.33588 14.4845L3.68509 10.0226C3.69129 9.94335 3.6658 9.8649 3.61421 9.80444L0.709017 6.3999C0.563682 6.22958 0.649375 5.96585 0.867062 5.91348L5.21855 4.86678C5.29582 4.84819 5.36256 4.7997 5.40412 4.73196L7.74428 0.916896C7.86134 0.726044 8.13865 0.726044 8.25572 0.916896L10.5959 4.73196C10.6374 4.7997 10.7042 4.84819 10.7814 4.86678L15.1329 5.91348C15.3506 5.96585 15.4363 6.22958 15.291 6.3999L12.3858 9.80444C12.3342 9.8649 12.3087 9.94335 12.3149 10.0226L12.6641 14.4845C12.6816 14.7078 12.4572 14.8708 12.2504 14.7852L8.11469 13.0742Z" fill="#282725"/>
</svg>
