<svg width="98" height="98" viewBox="0 0 98 98" fill="none" xmlns="http://www.w3.org/2000/svg">
    <path fill-rule="evenodd" clip-rule="evenodd" d="M93.222 33.103c-.74 2.243-1.757 4.412-2.766 6.544a110.43 110.43 0 0 1-3.24 6.31 123.262 123.262 0 0 1-3.666 6.18c-1.252 1.98-2.532 3.96-3.992 5.794-2.845 3.574-6.443 6.28-10.434 8.459-4.17 2.275-8.732 3.942-13.476 4.414.447-.7.899-1.395 1.375-2.077 1.114-1.597 2.36-3.446 4.237-4.207.038-.015.067-.04.102-.058 1.606.305 3.24.459 4.873.442 1.5-.015 3.022-.152 4.48-.519.644-.163 1.447-.33 1.827-.934.37-.59.23-1.426.221-2.086l-.066-4.935a2.22 2.22 0 0 0 .653-.272c.803-.507 1.3-1.467 1.23-2.416-.06-.78-.43-1.478-.984-2 .162-.445.198-.924.133-1.395a.673.673 0 0 0-.049-.32l-.004-.026c-.004-.017-.014-.025-.02-.04-.007-.014-.007-.03-.015-.043a2.171 2.171 0 0 1-.021-.032.704.704 0 0 0-.16-.236 3.759 3.759 0 0 0-.567-.65.602.602 0 0 0-.096-.302 2.583 2.583 0 0 1-.227-.406c-.021-.058-.032-.12-.05-.18a35.627 35.627 0 0 0 5.02-4.882c2.22-2.65 3.964-5.628 5.5-8.715.78-1.571 1.513-3.166 2.252-4.758.68-1.467 1.287-3.054 2.194-4.401.357-.531.82-1.006 1.442-1.202.086-.027.148-.073.212-.117.055.007.102.025.166.02 1.81-.154 3.267 1.104 4.039 2.65.997 1.994.545 4.374-.123 6.396zm-23.91 20.241c.094-.113.184-.23.275-.345.024.16.087.328.202.433.145.134.335.233.538.224l.203-.028a.754.754 0 0 0 .237-.12c.163-.123.34-.223.527-.309.147-.054.297-.095.45-.124.157-.016.315-.026.473-.015.136.01.291-.046.415-.126.252.267.427.599.43.948.006.42-.247.888-.615 1.038-.6.246-1.26-.13-1.74-.466-.484-.34-.94-.726-1.395-1.11zm1.686-1.658a3.499 3.499 0 0 0-.675.304c.243-.36.477-.725.69-1.104.108-.19.234-.425.351-.58a1.53 1.53 0 0 1 .204-.215.206.206 0 0 1 .09-.049c.035-.01.06-.009.11.01a.443.443 0 0 1 .118.082c.14.116.243.259.341.406.058.36-.024.69-.228 1.003-.338.001-.683.041-1 .143zm-23.855 6.022c-7.32 1.742-14.841 2.794-22.379 2.512-6.985-.26-14.01-1.702-20.35-4.704-.486-.23-.959-.484-1.436-.732 3.016-3.433 6.356-6.588 10.002-9.344a68.524 68.524 0 0 1 6.052-4.086c2.159-1.294 4.402-2.418 6.641-3.559 2.504-1.276 4.964-2.648 7.09-4.504.74-.646-.34-1.72-1.077-1.077-1.697 1.48-3.622 2.636-5.611 3.697 0-.01.006-.018.006-.03a238.061 238.061 0 0 1 .446-16.373c.028-.464-.05-1.124.154-1.556.152-.32.593-.104.884-.06.534.084 1.071.137 1.61.141 2.035.02 4.027-.546 5.854-1.413 1.892-.899 3.547-2.162 5.104-3.547 1.398-1.24 2.83-2.63 4.645-3.227 3.82-1.26 8.038 1.259 10.806 3.716 3.057 2.712 5.306 6.184 7.159 9.8-1.93.224-3.855.463-5.78.72-.407.054-.761.311-.761.761 0 .37.351.817.762.762 8.323-1.11 16.7-1.996 25.107-1.989 1.602.002 3.2.05 4.8.12-.56.573-.995 1.282-1.36 2.011-.765 1.524-1.459 3.084-2.177 4.629-1.463 3.144-2.972 6.287-4.914 9.169-3.448 5.118-8.348 9.013-13.762 11.89-5.496 2.922-11.475 4.836-17.515 6.273zm-3.444 5.889c-.89 1.288-1.988 2.48-3.294 3.36-2.472 1.664-5.78 2.301-8.432.67-1.285-.79-2.246-2.017-2.584-3.496-.22-.955-1.689-.551-1.47.404.754 3.29 3.959 5.462 7.228 5.57.611.021 1.21-.026 1.797-.124-1.89 2.184-4.16 4.112-6.722 5.381.055-.561-.51-1.158-1.11-.761-1.943 1.288-4.438.971-6.074-.652-1.561-1.55-3.185-4.112-1.74-6.248.55-.814-.77-1.577-1.317-.77-1.843 2.73-.061 6.07 1.98 8.094a6.536 6.536 0 0 0 3.486 1.797c-.851.104-1.72.14-2.61.076-2.655-.192-5.174-1.317-6.998-3.267-1.633-1.745-2.59-4.08-2.36-6.484.24-2.512 1.83-5.041 4.21-6.018.04-.016.07-.042.107-.062 1.293.2 2.59.37 3.893.485 7.537.661 15.146-.111 22.536-1.636.54-.112 1.077-.232 1.615-.35-.53 1.421-1.282 2.788-2.14 4.03zm50.93-37.721c-.951-1.85-2.822-3.344-4.955-3.34a.74.74 0 0 0-.468-.207c-8.289-.55-16.603-.06-24.85.846-1.789-3.586-3.957-7.058-6.829-9.881-1.448-1.425-3.088-2.683-4.885-3.637-1.925-1.022-4.115-1.779-6.324-1.64-2.203.138-4.033 1.23-5.693 2.609-1.63 1.354-3.115 2.829-4.948 3.92-1.803 1.075-3.84 1.862-5.956 1.954-.495.023-.991.01-1.484-.042-.574-.061-1.158-.27-1.737-.158-1.15.224-1.376 1.366-1.442 2.357a231.673 231.673 0 0 0-.5 17.224.683.683 0 0 0 .378.629c-2.054 1.052-4.147 2.043-6.113 3.198a69.434 69.434 0 0 0-11.873 8.8 68.887 68.887 0 0 0-5.737 5.965c-.306.359-.305.946.154 1.197 4.424 2.41 9.213 4.028 14.138 4.996-1.603 1.19-2.753 2.93-3.275 4.9-.712 2.685-.12 5.538 1.457 7.808a11.799 11.799 0 0 0 6.984 4.723c3.27.764 6.713.248 9.75-1.118 3.187-1.434 5.887-3.807 8.086-6.491.247-.302.217-.651.06-.92 2.301-.802 4.32-2.421 5.816-4.347 1.297-1.67 2.366-3.584 3.058-5.583a.662.662 0 0 0 .001-.438c5.269-1.24 10.46-2.866 15.369-5.15a50.328 50.328 0 0 0 6.809-3.823c-.18.31-.355.624-.554.92a14.712 14.712 0 0 1-1.37 1.745c-.257.28-.332.806 0 1.076.844.692 1.673 1.498 2.622 2.044.265.152.555.273.855.36.022 1.696.046 3.391.069 5.086l.008.65c.002.135.056.373.004.5.069-.013.053.002-.045.045a7.93 7.93 0 0 1-.307.1c-.168.05-.338.098-.508.142-.814.21-1.645.34-2.481.41-3.392.28-6.797-.203-9.993-1.36-.923-.334-1.321 1.137-.405 1.468.57.206 1.148.386 1.731.55-1.04.761-1.898 1.749-2.687 2.809a56.645 56.645 0 0 0-3.375 5.12 61.448 61.448 0 0 0-5.152 11.243 60.655 60.655 0 0 0-1.875 6.754c-.207.956 1.262 1.364 1.469.405a59.93 59.93 0 0 1 7.04-17.877c4.828-.303 9.479-1.796 13.787-3.958 4.31-2.165 8.39-4.943 11.523-8.647 1.575-1.863 2.948-3.886 4.269-5.934a125.841 125.841 0 0 0 3.94-6.532c1.23-2.19 2.391-4.422 3.472-6.69 1.083-2.273 2.168-4.59 2.977-6.977.85-2.511 1.254-5.356-.005-7.803z" fill="#CDCDCD"/>
</svg>
