<svg width="98" height="98" viewBox="0 0 98 98" fill="none" xmlns="http://www.w3.org/2000/svg">
    <path fill-rule="evenodd" clip-rule="evenodd" d="M28.5 17.5s4.5 1 6-.5 12-9 14-8S59 13.5 64 23l.5 1S86 23 89 23s-2.5 4-2.5 5-4.5 10.5-6 12.5-11.5 12-15 12-8 5.5-23.5 8-37-4-38-5S9 49 9 49l18-12.5.5-17.5 1-1.5z" fill="#282725"/>
    <mask id="9dm3xou0ua" style="mask-type:alpha" maskUnits="userSpaceOnUse" x="2" y="8" width="95" height="83">
        <path fill-rule="evenodd" clip-rule="evenodd" d="M2 8.2h94.878V91H2V8.2z" fill="#fff"/>
    </mask>
    <g mask="url(#9dm3xou0ua)">
        <path fill-rule="evenodd" clip-rule="evenodd" d="M94.512 31.073c-.004.043-.01.085-.016.128-.016.096-.028.192-.043.288-.037.222-.078.444-.122.664a24.55 24.55 0 0 1-.755 2.805 38.64 38.64 0 0 1-1.365 3.525 65.165 65.165 0 0 1-1.119 2.37c-2.055 4.127-4.499 8.064-7.106 11.869a121.146 121.146 0 0 1-3.345 4.654c-.236.315-.477.626-.717.938l-.002.003-.025.032-.147.186c-.104.132-.208.265-.313.396-.444.554-.88 1.095-1.401 1.579a39.02 39.02 0 0 1-3.987 3.224c.38-.568.347-1.435.371-2.098.06-1.638-.096-3.274-.087-4.912.459-.129.89-.342 1.225-.692.594-.62.774-1.433.636-2.26-.115-.692-.489-1.325-.945-1.872.139-.434.182-.89.13-1.343a.992.992 0 0 0-.124-.605 1.103 1.103 0 0 0-.259-.379 4.047 4.047 0 0 0-.488-.565 1.132 1.132 0 0 0-.122-.318c-.08-.111-.14-.234-.2-.356-.024-.068-.039-.137-.057-.206a46.652 46.652 0 0 0 4.282-3.875c1.182-1.219 2.35-2.495 3.318-3.89 1.012-1.462 1.8-3.063 2.524-4.68.735-1.64 1.404-3.31 2.171-4.938.704-1.492 1.58-3.127 2.553-4.321.466-.572.987-1.093 1.545-1.575.337.057.671.125.999.222a8.576 8.576 0 0 1 .585.199c.003.002.002.002.006.002.09.049.187.088.278.135.15.077.3.161.441.252.074.047.145.1.217.147l.02.012.02.019c.119.105.238.206.35.319.092.094.42.542.199.204.18.278.36.542.511.838.006.01.01.023.017.035l-.018-.053c.023.072.056.14.082.209a6.199 6.199 0 0 1 .273 1.002c.014.076.023.155.038.232l.012.097c.04.383.05.768.044 1.153-.008.4-.037.801-.084 1.2zm-37 39.263c.288-.396.586-.785.894-1.168 1.28-1.586 2.782-3.084 4.392-4.267 1.461.285 2.942.458 4.427.472 1.428.015 2.877-.129 4.26-.481.58-.147 1.171-.342 1.728-.582-4.45 2.98-9.521 5.06-14.817 5.907-.294.047-.589.082-.883.119zm16.159-15.744c-.016.009-.049.01-.08.012a.374.374 0 0 1 .08-.012zm-1.775-.463c.12-.034.226-.09.327-.156.153-.118.324-.208.499-.291.108-.036.216-.066.328-.089.143-.012.286-.024.43-.014a.824.824 0 0 0 .185-.014l.01.013c.08.123.148.249.214.378.022.063.043.125.06.189.008.03.014.06.02.09l.001.117-.013.052-.016.03-.025.026c-.05.03-.099.059-.15.086-.037.013-.075.025-.113.034a2.844 2.844 0 0 1-.115.025c-.12.008-.24.008-.36.001-.064-.004-.128-.013-.192-.017l.141.01a1.562 1.562 0 0 1-.135-.018 4.266 4.266 0 0 1-.413-.11c-.073-.023-.145-.05-.217-.076-.019-.01-.038-.017-.048-.022a5.28 5.28 0 0 1-.444-.24l.026-.004zm.608-2.83c.062-.091.126-.183.192-.273l.04-.052c.014-.015.029-.031.041-.046.068-.077.138-.153.213-.223l.004-.004.08.083.046.052.016.025v.179c-.014.052-.023.106-.038.157-.007.025-.022.1-.028.129h-.001l.009-.049c.027-.144-.006-.013-.032.05-.032.003-.063-.002-.095.003a6.272 6.272 0 0 0-.52.084c.025-.038.047-.077.073-.114zm.361-.691c.008.003.019.004.03.007l.039.025c0 .002.003.003.004.005-.277.01-.149-.062-.073-.037zm-.142.379c-.036.048-.079.105-.077.098a.475.475 0 0 1 .077-.099zm1.112 3.54a.191.191 0 0 0-.024.007.66.66 0 0 1 .1-.07l-.014.016a.406.406 0 0 1-.062.048zm-29.379 4.139C37.867 59.9 30.965 60.28 24.164 59.69a61.903 61.903 0 0 1-9.548-1.563 55.923 55.923 0 0 1-4.652-1.352 46.878 46.878 0 0 1-4.192-1.636c-.288-.129-.567-.273-.85-.408 5.914-7.188 14.291-11.74 22.234-16.386 2.359-1.38 4.703-2.784 6.983-4.289.513-.338.732-1 .41-1.55-.298-.504-1.045-.745-1.56-.405a129.25 129.25 0 0 1-5.08 3.165c.06-.98.01-1.979-.008-2.944-.035-2.043-.095-4.084-.09-6.126.003-1.04.02-2.082.074-3.12.023-.476.054-.952.098-1.425.02-.215.042-.428.068-.641.01-.084.06-.413.008-.08l.048-.33c.058-.361.128-.723.222-1.078.04-.149.084-.297.134-.443.018-.052.04-.105.058-.158.042-.072.083-.148.125-.221.265.063.53.115.8.155a9.648 9.648 0 0 0 1.787.118 10.17 10.17 0 0 0 3.174-.644c2.047-.768 3.834-2.007 5.568-3.31 1.662-1.248 3.292-2.576 5.139-3.552.212-.112.426-.219.645-.319.07-.033.142-.064.214-.096-.079.036.226-.09.29-.114a8.949 8.949 0 0 1 1.336-.385c.114-.023.228-.04.341-.062h.005l.123-.014c.262-.022.524-.037.788-.034.224.003.447.02.67.04l.067.006c.017.004.04.01.084.018.137.025.276.05.414.083a7.807 7.807 0 0 1 1.13.35l.047.018c.07.03.14.062.212.095.642.297 1.276.637 1.893.982a19.254 19.254 0 0 1 3.782 2.79c2.37 2.226 4.226 4.913 5.797 7.737.165.297.316.603.475.904-1.725.203-3.45.416-5.172.643-.61.081-1.14.463-1.14 1.132 0 .55.525 1.214 1.14 1.132 8.308-1.1 16.67-1.978 25.06-1.97 1.447.002 2.894.04 4.34.097-1.861 2.112-3.08 4.747-4.186 7.31-.704 1.63-1.383 3.273-2.197 4.854a20.938 20.938 0 0 1-2.78 4.135c-4.18 4.866-9.247 8.537-14.956 11.472-5.94 3.053-12.418 5.145-19.08 6.395zm1.976 2.115-.063.15a9.473 9.473 0 0 1-.145.308 13.333 13.333 0 0 1-1.321 2.121l-.158.195a15.456 15.456 0 0 1-2.18 2.147c-.012.01-.126.098-.153.121l-.182.135a13.802 13.802 0 0 1-2.627 1.512l-.312.124a10.603 10.603 0 0 1-1.713.482c-.044.009-.295.045-.33.052a8.51 8.51 0 0 1-.441.042c-.382.022-.759.01-1.14-.018-.058-.004-.347-.05-.039 0-.057-.01-.114-.016-.17-.028-.169-.033-.337-.064-.503-.108a6.051 6.051 0 0 1-.492-.149c-.055-.019-.108-.04-.162-.06.123.044-.153-.067-.2-.09a5.744 5.744 0 0 1-.682-.392l-.188-.134a6.4 6.4 0 0 1-.967-.959c.04.048-.145-.195-.166-.225a8.46 8.46 0 0 1-.393-.625 7.603 7.603 0 0 1-.606-1.31c-.21-.574-.774-.962-1.402-.791-.558.152-1.008.815-.796 1.392.68 1.857 1.745 3.56 3.441 4.656 1.382.892 3.102 1.235 4.733 1.084.16-.015.315-.052.473-.074a20.003 20.003 0 0 1-2.939 2.884c-.082.065-.19.147-.376.282a17.056 17.056 0 0 1-1.568 1.007 16.24 16.24 0 0 1-.73.382 1.094 1.094 0 0 0-.109-.267c-.288-.489-1.059-.766-1.56-.406-.193.138-.39.266-.6.378-.033.017-.216.101-.243.117a4.41 4.41 0 0 1-.288.104 5.44 5.44 0 0 1-.566.132c-.052.006-.153.022-.19.025a5.098 5.098 0 0 1-.744-.004c-.045-.003-.126-.015-.174-.02a6.47 6.47 0 0 1-.676-.152 6.007 6.007 0 0 1-.578-.202c-.043-.02-.14-.062-.177-.081a7.626 7.626 0 0 1-.968-.564c-.032-.023-.17-.124-.208-.15l-.033-.026-.188-.157a7.82 7.82 0 0 1-.963-.989c-.03-.042-.118-.158-.143-.195a6.906 6.906 0 0 1-.544-.91c-.018-.034-.105-.232-.112-.243-.03-.075-.06-.151-.087-.228a5.915 5.915 0 0 1-.189-.674c-.013-.06-.022-.121-.036-.182l-.007-.029a7.07 7.07 0 0 1-.028-.356 5.001 5.001 0 0 1 0-.368c.002-.04.02-.216.024-.278a4.46 4.46 0 0 1 .153-.653c.02-.06.043-.12.064-.18l.009-.03.006-.011c.065-.134.132-.266.206-.395.722-1.27-1.248-2.413-1.97-1.143-2.04 3.59.259 7.756 3.65 9.57a12.69 12.69 0 0 1-.348-.029c-.038-.003-.242-.029-.315-.037a13.911 13.911 0 0 1-2.775-.686c-.135-.049-.27-.1-.405-.153a4.848 4.848 0 0 1-.1-.04 14.238 14.238 0 0 1-.94-.45 13.264 13.264 0 0 1-1.59-1.004c.117.088-.055-.042-.093-.073-.102-.084-.206-.167-.304-.255a10.313 10.313 0 0 1-1.197-1.215l-.096-.118c0-.002 0-.002-.002-.002l-.004-.008c-.087-.123-.178-.242-.262-.367a8.638 8.638 0 0 1-.7-1.266c-.026-.062-.073-.176-.088-.218a7.258 7.258 0 0 1-.322-1.18c-.017-.089-.055-.49-.024-.125-.01-.12-.025-.239-.033-.36a6.716 6.716 0 0 1-.007-.8c.008-.146.025-.291.036-.437.015-.074.025-.15.04-.223.057-.303.135-.603.23-.897.05-.152.107-.3.163-.45.01-.024.035-.082.053-.12-.01.019-.022.046-.042.09.035-.075.068-.151.104-.226a8.923 8.923 0 0 1 .796-1.351c.054-.076.11-.149.163-.224l.024-.036.03-.033c.26-.32.532-.63.822-.925a14.857 14.857 0 0 1 1.95-1.662c.026-.02.05-.042.076-.063.67.104 1.343.205 2.016.29 6.922.87 13.953.675 20.845-.37a77.699 77.699 0 0 0 4.154-.755c-.03.077-.058.155-.089.232zm22.742-8.48c-.065.084-.154.183 0 0zM96.017 25.86c-.805-1.504-2.27-2.494-3.89-2.971a8.399 8.399 0 0 0-.934-.21 1.296 1.296 0 0 0-.757-.305c-8.2-.541-16.423-.067-24.582.816-1.495-2.947-3.25-5.776-5.444-8.264A23.727 23.727 0 0 0 52.68 9.12c-2.12-.997-4.45-1.224-6.693-.48-2.042.677-3.819 1.911-5.523 3.186-1.753 1.313-3.467 2.714-5.412 3.743-.22.116-.443.228-.67.333-.089.041-.18.081-.27.121.04-.02-.214.087-.267.107a10.01 10.01 0 0 1-1.855.51c-.047.009-.096.015-.144.023h-.01c-.278.024-.556.049-.836.052a8.276 8.276 0 0 1-.764-.029l-.296-.031a4.212 4.212 0 0 1-.084-.014c-.082-.015-.165-.029-.247-.045-.393-.077-.778-.214-1.182-.198-.46.018-.877.208-1.222.506-.511.444-.794 1.102-.991 1.733-.539 1.716-.592 3.619-.648 5.402-.07 2.176-.024 4.355.021 6.532.035 1.631.12 3.277.022 4.908-.007.124-.019.247-.03.37l-.005.03c-.047.25-.01.497.076.72-6.112 3.573-12.306 7.028-17.64 11.716a43.542 43.542 0 0 0-5.844 6.25c-.359.469-.09 1.294.409 1.549 4.417 2.245 9.142 3.776 13.989 4.752-1.76 1.58-3.216 3.538-3.64 5.887-.461 2.564.311 5.034 1.92 7.055 3.567 4.475 10.186 5.753 15.501 4.148 4.112-1.242 7.438-4.042 9.937-7.447.197-.269.2-.617.087-.926 2.3-.921 4.367-2.49 5.925-4.35 1.283-1.533 2.32-3.306 2.784-5.26 4.549-1.11 8.996-2.63 13.245-4.594a60.128 60.128 0 0 0 7.561-4.178c-.103.169-.204.338-.309.506a12.565 12.565 0 0 1-.372.558l-.017.023c-.063.076-.125.153-.194.224a2.753 2.753 0 0 1-.127.123c-.02.019-.044.036-.064.055-.044.04-.017.021.025-.01-.53.452-.606 1.132-.128 1.69.852.994 2.038 1.931 3.352 2.318-.007 1.875.238 3.773.052 5.64-4.05 1.573-8.81.61-12.79-.686-.586-.19-1.245.221-1.403.79-.17.614.21 1.201.797 1.392.443.145.89.279 1.34.408-5.632 4.886-8.816 11.99-11.073 18.962a132.66 132.66 0 0 0-1.87 6.402c-.377 1.408 1.823 2.01 2.2.601 1.59-5.925 3.416-12.12 6.606-17.434 7.876-.599 15.358-3.834 21.49-8.72 1.074-.856 2.193-1.736 3.069-2.795a72.65 72.65 0 0 0 1.388-1.743c1.12-1.445 2.201-2.92 3.252-4.417 2.71-3.862 5.25-7.863 7.424-12.05 1.983-3.82 3.908-7.981 4.298-12.316.148-1.65-.018-3.382-.812-4.863z" fill="#000"/>
    </g>
    <path fill-rule="evenodd" clip-rule="evenodd" d="M94.471 26.419c.099.294.052.124 0 0zM73.456 54.496c.093.01.141.011 0 0zM15.49 65.522c.03-.067.021-.048 0 0z" fill="#000"/>
</svg>
