<svg width="213" height="59" viewBox="0 0 213 59" fill="none" xmlns="http://www.w3.org/2000/svg">
    <path d="M18.184 51.228v-6.804h4.928v-.658h-5.67v8.106h.91c2.422 0 3.948-.084 5.81-.448l-.112-.63c-1.792.35-3.318.434-5.698.434h-.168zm8.008-8.68v4.634h-3.878v.63h3.878v7.182h.742V42.548h-.742zm9.085.924c2.156 0 3.556.672 3.556 1.75 0 1.078-1.4 1.736-3.556 1.736-2.128 0-3.528-.658-3.528-1.736 0-1.078 1.4-1.75 3.528-1.75zm0 4.088c2.674 0 4.312-.854 4.312-2.338 0-1.498-1.638-2.352-4.312-2.352-2.646 0-4.284.854-4.284 2.352 0 1.484 1.638 2.338 4.284 2.338zm5.628 1.764v-.616H29.677v.616h5.236v1.722h-3.99v.63h7.84v3.304h.742v-3.934h-3.85v-1.722h5.25zm5.678-2.142c1.834-.21 3.976-1.036 4.69-2.422.714 1.386 2.87 2.212 4.69 2.422l.266-.574c-1.96-.21-4.55-1.246-4.55-2.842v-.084h4.2v-.616h-9.184v.616h4.172v.084c0 1.596-2.59 2.632-4.55 2.842l.266.574zm1.232 5.446h7.588v-2.604H47.06v.602h7.616v1.414h-7.588v2.758h8.722v-.616h-7.994v-1.554zm-2.17-4.634v.616h11.242v-.616H45.645zm13.481-4.074v.63h4.844c-.168 2.996-1.862 5.642-5.348 7.336l.434.588c4.032-1.988 5.656-5.166 5.656-8.554h-5.586zm8.778-1.372v5.11h-3.192v.63h3.192v6.678h.742V42.548h-.742zm9.113.98c2.1 0 3.528.728 3.528 1.82s-1.428 1.82-3.528 1.82c-2.072 0-3.5-.728-3.5-1.82s1.428-1.82 3.5-1.82zm0 4.27c2.618 0 4.298-.938 4.298-2.45 0-1.512-1.68-2.436-4.298-2.436-2.59 0-4.27.924-4.27 2.436s1.68 2.45 4.27 2.45zm-3.374 3.304h-.728v3.57h8.526v-.644h-7.798v-2.926zm-2.254-2.086v.63h5.376v2.758h.742v-2.758h5.18v-.63H71.39zm23.417-4.942h-3.304v-1.652h-.742v1.652h-3.318v.616h7.364v-.616zm-5.922 3.556c0-.938.91-1.582 2.24-1.582s2.226.644 2.226 1.582c0 .938-.896 1.582-2.226 1.582s-2.24-.644-2.24-1.582zm5.166 0c0-1.344-1.162-2.17-2.926-2.17-1.778 0-2.94.826-2.94 2.17 0 1.344 1.162 2.17 2.94 2.17 1.764 0 2.926-.826 2.926-2.17zm-.91 6.706c-1.988 0-3.248-.56-3.248-1.512 0-.938 1.26-1.498 3.248-1.498 1.974 0 3.234.56 3.234 1.498 0 .952-1.26 1.512-3.234 1.512zm0-3.612c-2.478 0-3.976.77-3.976 2.1 0 1.344 1.498 2.114 3.976 2.114 2.464 0 3.962-.77 3.962-2.114 0-1.33-1.498-2.1-3.962-2.1zm5.768-5.18v-.63h-1.932v-2.366h-.742v8.078h.742v-2.45h1.932v-.644h-1.932v-1.988h1.932zm11.94 1.918c-1.862-.308-4.564-1.764-4.564-3.668v-.77h-.77v.77c0 1.96-2.674 3.36-4.578 3.668l.322.616c1.75-.336 3.906-1.414 4.648-3.066.742 1.624 2.912 2.73 4.634 3.066l.308-.616zm.672 2.226h-11.256v.63h5.236v4.648h.742v-4.648h5.264l.014-.63zm5.973 1.596v-3.29h4.788v-4.242h-5.558v.644h4.83v2.954h-4.788v4.564h.952c2.506 0 4.116-.098 6.09-.462l-.07-.644c-1.932.378-3.556.476-6.02.476h-.224zm10.402-3.64h-2.184v-5.096h-.742v12.446h.742v-6.72h2.184v-.63zm10.583-5.096V54.98h.742V42.548h-.742zm-5.726 1.008c-1.82 0-3.094 1.68-3.094 4.27 0 2.604 1.274 4.27 3.094 4.27 1.806 0 3.08-1.666 3.08-4.27 0-2.59-1.274-4.27-3.08-4.27zm0 .658c1.386 0 2.366 1.484 2.366 3.612s-.98 3.626-2.366 3.626c-1.4 0-2.38-1.498-2.38-3.626s.98-3.612 2.38-3.612zm16.589 4.984h-3.458v-4.676h3.458v4.676zm-4.186 0h-2.072v.63h9.072v-.63h-2.072v-4.676h2.072v-.63h-9.086v.63h2.086v4.676zm-3.15 3.458v.63h11.298v-.63h-11.298zm16.939-9.156c-1.932 0-3.276 1.148-3.276 2.842 0 1.694 1.344 2.842 3.276 2.842 1.932 0 3.276-1.148 3.276-2.842 0-1.694-1.344-2.842-3.276-2.842zm0 .644c1.484 0 2.562.924 2.562 2.198s-1.078 2.198-2.562 2.198c-1.484 0-2.562-.924-2.562-2.198s1.078-2.198 2.562-2.198zm5.18-1.596v12.446h.742V42.548h-.742zm-9.03 9.576c2.268 0 5.362 0 8.218-.518l-.07-.574c-2.772.434-5.95.448-8.274.448l.126.644zm19.93-8.428h-.728v2.478c0 2.324-1.792 4.69-3.43 5.53l.462.602c1.386-.756 2.786-2.422 3.346-4.368.574 1.862 1.988 3.458 3.346 4.172l.462-.602c-1.652-.784-3.458-3.066-3.458-5.334v-2.478zm5.194-1.148v12.446h.742V42.548h-.742zm10.639 6.3c-1.722-.616-3.122-2.142-3.122-3.906v-.812h2.94v-.63h-6.622v.63h2.954v.826c0 1.904-1.484 3.514-3.22 4.158l.392.588c1.456-.56 2.688-1.736 3.206-3.262.518 1.386 1.68 2.478 3.08 3.01l.392-.602zm-5.474 2.534h7.21v3.584h.742v-4.214h-7.952v.63zm9.898-5.418h-1.946v-3.416h-.742v7.476h.742v-3.416h1.946v-.644z" fill="#fff"/>
    <g clip-path="url(#ng5cnrzt9a)" fill="#fff">
        <path d="m-.004 27.053.167-3.628h.95c.251 0 .251 1.143 1.09 2.282.703.982 3.193 1.878 6.426 1.878 3.854 0 7.21-2.367 7.21-5.956 0-3.589-3.523-5.3-7.21-6.931-4.227-1.879-8.292-3.1-8.292-7.996C.337 2.774 3.404.014 8.546.014c3.603 0 5.926.939 7.79 2.039-.083.61-.25 2.653-.29 3.264h-.954c-.247 0-.247-1.182-1.088-2.286-.704-.939-2.777-1.785-5.676-1.785-3.524 0-5.93 2.324-5.93 4.892 0 4.078 3.15 5.017 6.895 6.65 4.188 1.835 8.622 3.83 8.622 8.277 0 5.06-4.434 7.913-9.072 7.913-4.035-.021-6.938-.96-8.847-1.925zM31.205 29c-5.636 0-9.116-3.714-8.953-9.285.164-5.57 4.144-9.284 9.533-9.284a7.982 7.982 0 0 1 3.04.525c.967.371 1.851.927 2.6 1.635.04.693-.363 1.786-1.09 1.786-.623 0-.663-.814-1.088-1.386-.747-.814-1.949-1.467-3.774-1.467-4.808 0-7.21 3.831-7.17 8.57.043 4.642 2.78 7.792 7.047 7.792a9.53 9.53 0 0 0 5.842-2.082l.748.736A10.012 10.012 0 0 1 31.205 29zM50.075 10.402c4.144 0 7.46 2.893 7.62 7.746l-13.263 1.55.083-1.222 10.611-1.307c.33-.039.414-.203.363-.571-.33-3.1-2.86-5-5.759-5-4.144 0-6.467 3.793-6.427 8.157.044 4.567 2.653 8.074 7.048 8.074a9.529 9.529 0 0 0 5.846-2.079l.725.732a9.992 9.992 0 0 1-6.756 2.5c-5.636 0-9.033-3.753-8.91-9.338.15-5.289 3.59-9.242 8.819-9.242zM68.553 27.411l-.207.736a53.636 53.636 0 0 0-6.34 0l-.206-.736c0-.204 2.569-.357 2.609-1.918V13.71a.942.942 0 0 0-.248-.76.973.973 0 0 0-.747-.311 5.381 5.381 0 0 0-1.814.285l-.363-.735 3.77-1.786c.33-.125 1.285.408 1.285.611V25.49c.025 1.564 2.26 1.714 2.26 1.921zm13.14 0-.207.736a50.913 50.913 0 0 0-6.169 0l-.25-.736c0-.204 2.239-.357 2.282-1.918v-9.42c0-2.121-2.322-3.57-4.478-3.55-2.032.043-3.814 1.072-5.138 2.572l-.414-.857c1.408-1.957 3.687-3.346 5.966-3.346 2.696 0 5.93 1.592 5.93 5.138v9.463c.032 1.56 2.478 1.71 2.478 1.918zM96.201 26.957c-.954.9-3.4 2-5.265 2-1.241 0-2.86-1.1-2.86-2.325V12.031h-2.86v-.854c.498-.082 2.24-.493 2.82-1.346.537-.775.744-2.532.951-4.039h.994v4.892h5.306v1.347h-5.295v13.134c0 1.182-.04 2.242 1.368 2.242a10.065 10.065 0 0 0 4.395-1.142l.446.692zM99.765 27.243l.167-3.1h.726c.25 0 .206.94.994 1.96.747.936 2.446 1.63 4.601 1.63 2.569 0 4.808-1.468 4.808-3.875 0-2.079-1.614-2.69-4.394-3.75-3.44-1.307-6.713-2-6.63-5.356.083-3.357 3.397-4.643 6.34-4.61 2.089.082 4.126.67 5.929 1.714-.083.567-.25 2.2-.29 2.814h-.748c-.246 0-.207-.94-.994-1.957-.748-.94-2.406-1.39-3.992-1.39-1.948 0-4.187.775-4.271 3.1-.083 2.732 2.406 3.018 5.266 4.039 3.266 1.182 5.759 2.243 5.759 5.056 0 3.629-3.604 5.425-6.797 5.425a12.885 12.885 0 0 1-6.474-1.7zM157.75 1.386c0 .207-3.65.328-3.69 1.917v24.84h-1.161l-.04-.082v.082L135.328 3.996V25.49c.04 1.592 3.73 1.714 3.73 1.917l-.21.736c-1.532-.125-6.96-.125-8.495 0l-.207-.736c0-.203 3.48-.325 3.523-1.917V3.35c0-1.55-3.523-1.714-3.523-1.918l.083-.818c1.325.082 3.854.082 5.139 0l17.077 23.533V3.307c-.043-1.59-3.647-1.71-3.647-1.918l.207-.775c1.531.125 7.004.125 8.495 0l.25.772zM160.86 19.912c0-5.264 3.564-9.503 8.909-9.503 4.769 0 8.347 3.75 8.347 9.217 0 5.26-3.48 9.338-8.829 9.338-4.946-.007-8.427-3.596-8.427-9.052zm15.129.04c0-4.854-2.653-8.403-6.593-8.403-3.941 0-6.424 3.467-6.424 8.116 0 4.853 2.57 8.157 6.674 8.157 3.73-.008 6.35-3.229 6.35-7.878l-.007.007zM193.023 26.957c-.954.9-3.4 2-5.265 2-1.241 0-2.86-1.1-2.86-2.325V12.031h-2.859v-.854c.497-.082 2.239-.493 2.819-1.346.537-.775.744-2.532.955-4.039h.994v4.892h5.305v1.347h-5.305v13.134c0 1.182-.044 2.242 1.368 2.242a10.064 10.064 0 0 0 4.391-1.142l.457.692zM205.39 10.402c4.144 0 7.458 2.893 7.621 7.746l-13.264 1.55.084-1.222 10.611-1.307c.33-.039.413-.203.363-.571-.334-3.1-2.86-5-5.763-5-4.144 0-6.467 3.793-6.423 8.157.04 4.567 2.652 8.074 7.043 8.074a9.532 9.532 0 0 0 5.847-2.079l.725.732a9.98 9.98 0 0 1-6.753 2.5c-5.636 0-9.036-3.753-8.913-9.338.146-5.289 3.582-9.242 8.822-9.242z"/>
    </g>
    <defs>
        <clipPath id="ng5cnrzt9a">
            <path fill="#fff" d="M0 0h213v29H0z"/>
        </clipPath>
    </defs>
</svg>
