<svg width="14" height="13" viewBox="0 0 14 13" fill="none" xmlns="http://www.w3.org/2000/svg">
<path d="M3.34375 6.875C3.71875 6.78125 4.07812 6.79688 4.42188 6.92188C4.76562 7.01562 5.0625 7.1875 5.3125 7.4375C5.59375 7.6875 5.8125 7.98437 5.96875 8.32812C6.15625 8.67188 6.25 9.04688 6.25 9.45312C6.25 10.2344 5.96875 10.8906 5.40625 11.4219C4.84375 11.9219 4.15625 12.1719 3.34375 12.1719C2.25 12.1719 1.4375 11.7812 0.90625 11C0.375 10.1875 0.109375 9.15625 0.109375 7.90625C0.109375 6.21875 0.5 4.75 1.28125 3.5C2.09375 2.21875 3.34375 1.26563 5.03125 0.640625L5.6875 1.53125C4.46875 2.09375 3.5625 2.79688 2.96875 3.64062C2.375 4.48438 2.07812 5.42188 2.07812 6.45312C2.07812 6.79688 2.14062 7 2.26562 7.0625C2.42188 7.125 2.59375 7.125 2.78125 7.0625L3.34375 6.875ZM10.8438 6.875C11.5625 6.71875 12.2188 6.90625 12.8125 7.4375C13.4062 7.96875 13.7031 8.64062 13.7031 9.45312C13.7031 10.2344 13.4219 10.8906 12.8594 11.4219C12.3281 11.9219 11.6562 12.1719 10.8438 12.1719C9.75 12.1719 8.92188 11.7812 8.35938 11C7.82812 10.1875 7.5625 9.15625 7.5625 7.90625C7.5625 6.21875 7.96875 4.75 8.78125 3.5C9.59375 2.21875 10.8438 1.26563 12.5312 0.640625L13.1875 1.53125C11.9688 2.09375 11.0469 2.79688 10.4219 3.64062C9.82812 4.48438 9.53125 5.42188 9.53125 6.45312C9.53125 6.79688 9.59375 7 9.71875 7.0625C9.875 7.125 10.0625 7.125 10.2812 7.0625L10.8438 6.875Z" fill="#C8BBB6"/>
</svg>
