<svg width="214" height="63" viewBox="0 0 214 63" fill="none" xmlns="http://www.w3.org/2000/svg">
    <path d="M18.84 12.828c-.61.017-1.236.042-1.88.076-.625.017-1.235.051-1.827.102-.593.034-1.151.085-1.676.152-.508.051-.956.11-1.346.178l-.66-1.473c.339.068.779.119 1.32.153.56.034 1.092.042 1.6.025h1.092a31.81 31.81 0 0 1 1.27-.025c.423-.017.82-.026 1.193-.026.39-.017.694-.034.914-.05v-6.5c0-.576-.262-1.033-.787-1.372-.508-.355-1.304-.66-2.387-.914l.305-.685c.846.101 1.7.237 2.564.406.863.152 1.625.296 2.285.432-.067.304-.127.651-.177 1.04-.051.39-.077.754-.077 1.092v14.22c0 .524-.017 1.116-.05 1.777-.017.66-.051 1.328-.102 2.005-.05.66-.11 1.295-.178 1.905-.05.626-.11 1.15-.177 1.574l-1.067.127a55.642 55.642 0 0 1-.05-1.092 754.212 754.212 0 0 1-.102-2.92V12.828zM6.094 17.272c0 .338.093.575.279.71.186.119.423.17.711.153a47.552 47.552 0 0 0 4.443-.559 37.342 37.342 0 0 0 4.698-1.168v.736a47.489 47.489 0 0 1-4.774 1.499 43.862 43.862 0 0 1-4.976.99c-.762.101-1.304.008-1.625-.28-.322-.287-.483-.829-.483-1.625v-7.515c0-.339-.025-.626-.076-.863a1.2 1.2 0 0 0-.33-.61c-.152-.169-.38-.321-.686-.457a7.779 7.779 0 0 0-1.142-.406l.28-.635c.93.136 1.912.229 2.944.28a48.02 48.02 0 0 0 3.123 0 58.15 58.15 0 0 0 3.073-.229 38.076 38.076 0 0 0 2.818-.38l-.305 1.523a56.151 56.151 0 0 0-4.443-.026c-1.337.05-2.514.119-3.53.203v8.659zm32.424-1.016c0 .541-.017 1.075-.051 1.6-.034.524-.085.998-.152 1.421 1.218-.067 2.37-.135 3.453-.203a49.54 49.54 0 0 0 2.716-.228c-.034.22-.059.406-.076.558 0 .136-.008.263-.025.381a2.012 2.012 0 0 0-.026.33v2.971c0 .254-.017.55-.05.889-.017.321-.043.643-.077.964a12.71 12.71 0 0 1-.127.94c-.05.305-.101.542-.152.71l-1.117.204c-.05-.423-.102-.94-.152-1.549a27.987 27.987 0 0 1-.051-1.574v-3.63a48.795 48.795 0 0 0-2.234 0c-.813 0-1.642.024-2.489.075-.846.034-1.684.076-2.514.127-.812.051-1.548.102-2.209.152-.541.034-1.032.077-1.472.128-.423.05-.914.118-1.473.203l-.761-1.575c.49.068.998.127 1.523.178.542.034 1.066.05 1.574.05h2.006c.728-.016 1.473-.041 2.234-.075-.033-.39-.059-.838-.076-1.346a41.006 41.006 0 0 1-.025-1.346v-.863c-.728.017-1.447.042-2.158.076-.711.017-1.38.043-2.006.076-.61.017-1.16.043-1.65.077a77.875 77.875 0 0 0-3.123.178c-.644.05-1.279.118-1.905.202l-.66-1.777a65.718 65.718 0 0 0 4.52.33c.423.017.981.025 1.675.025.694 0 1.447-.008 2.26-.025.83-.017 1.684-.034 2.564-.05l2.565-.051c.83-.034 1.583-.06 2.26-.077.694-.033 1.252-.059 1.675-.076a89.88 89.88 0 0 0 3.327-.203 44.554 44.554 0 0 0 2.945-.33l-.254 1.65a78.463 78.463 0 0 0-2.514-.076c-.981-.017-2.048-.034-3.199-.05-.49 0-1.142.008-1.955.025-.796 0-1.65.017-2.564.05v.534zM38.086 3.94a7.419 7.419 0 0 1 2.006.508 5.12 5.12 0 0 1 1.6.94c.44.372.786.804 1.04 1.295.254.49.381 1.015.381 1.574 0 .643-.152 1.235-.457 1.777a4.143 4.143 0 0 1-1.244 1.371c-.525.39-1.15.694-1.879.914-.71.22-1.48.33-2.31.33-.83 0-1.6-.11-2.31-.33a6.114 6.114 0 0 1-1.854-.914 4.684 4.684 0 0 1-1.22-1.37 3.73 3.73 0 0 1-.43-1.778c0-.593.135-1.143.405-1.65a4.664 4.664 0 0 1 1.143-1.372 6.033 6.033 0 0 1 1.727-.94 7.571 7.571 0 0 1 2.183-.405.697.697 0 0 0-.304-.457c-.153-.136-.424-.263-.813-.381l.228-.483c.424.085.83.161 1.22.229.405.05.829.118 1.269.203-.068.17-.136.33-.203.482a2.861 2.861 0 0 0-.178.457zm3.2 4.215c0-.474-.102-.922-.306-1.345a3.592 3.592 0 0 0-.837-1.118 3.966 3.966 0 0 0-1.27-.761 4.199 4.199 0 0 0-1.549-.28c-.575 0-1.108.093-1.6.28-.49.186-.922.44-1.294.761a3.59 3.59 0 0 0-.838 1.118 3.071 3.071 0 0 0-.305 1.345c0 .508.102.974.305 1.397.203.423.482.787.838 1.091.372.305.804.542 1.295.711.49.17 1.024.254 1.6.254.558 0 1.074-.084 1.548-.254.49-.169.914-.406 1.27-.71a3.31 3.31 0 0 0 .837-1.092c.204-.423.305-.889.305-1.397zm28.741.076c1.22.322 2.514.593 3.885.813a97.78 97.78 0 0 0 4.266.533L76.984 11c-.507-.17-1.1-.338-1.777-.508-.677-.186-1.38-.372-2.107-.558-.728-.204-1.456-.398-2.184-.584a101.78 101.78 0 0 1-2.006-.534 33.084 33.084 0 0 1-4.672 1.93c-1.608.508-3.19.914-4.748 1.219l-.457-.584c2.573-.694 4.96-1.566 7.16-2.615a24.934 24.934 0 0 0 5.916-3.91c-.507 0-1.058.016-1.65.05-.576.017-1.151.043-1.727.076l-1.7.102c-.542.034-1.025.05-1.448.05-.186 0-.432.01-.736.026a24.856 24.856 0 0 0-1.98.203c-.34.034-.653.076-.94.127l-.99-1.574c.22.05.473.093.761.127.288.034.593.068.914.102l.965.05h3.149a77.13 77.13 0 0 0 5.51-.304c.93-.085 1.76-.195 2.488-.33l.609.609a17.944 17.944 0 0 1-2.438 2.209c-.88.66-1.836 1.278-2.869 1.853zm10.182 6.323a78.132 78.132 0 0 0-2.514-.076c-.981-.017-2.048-.034-3.199-.051-.474 0-1.083.008-1.828.025-.745 0-1.557.009-2.438.026-.863.016-1.752.042-2.666.076-.914.017-1.785.042-2.615.076-.83.034-1.574.068-2.234.101l-1.498.077c-.66.033-1.32.076-1.98.127-.644.05-1.279.118-1.905.203l-.66-1.778c.795.085 1.549.153 2.26.204.71.033 1.464.067 2.26.101.423.017.981.025 1.675.025h2.26l2.564-.05 2.565-.051c.83-.034 1.582-.06 2.26-.076.694-.034 1.252-.06 1.675-.076a90.319 90.319 0 0 0 3.327-.204 44.69 44.69 0 0 0 2.945-.33l-.254 1.65zm-6.5 3.86c-.423-.018-.99-.026-1.701-.026a98.003 98.003 0 0 0-4.393.101 34.19 34.19 0 0 0-1.726.076c-.186.017-.423.034-.711.051-.271.017-.567.043-.889.076-.322.017-.652.051-.99.102-.339.034-.669.076-.99.127l-.89-1.574c.204.034.441.076.712.127.27.034.559.067.863.101a16.656 16.656 0 0 0 1.803.102h2.361c.914 0 1.88-.009 2.895-.026l3.021-.101c1.016-.051 1.938-.11 2.768-.178-.051.152-.11.39-.178.711-.05.322-.102.635-.152.94l-.406 1.98c.152-.017.279-.026.38-.026.119 0 .229-.008.33-.025l-.127 1.194a61.106 61.106 0 0 0-3.148-.077c-1.1 0-2.167.017-3.2.051a120.01 120.01 0 0 0-2.818.076l-1.904.076c-.017.17-.034.347-.05.534v1.65c0 .322.067.525.203.61.135.084.423.135.863.152a68.94 68.94 0 0 0 5.535-.127 91.181 91.181 0 0 0 3.174-.203 34.155 34.155 0 0 0 2.64-.305l-.355 1.574a151.45 151.45 0 0 0-3.123-.076c-1.134 0-2.277.008-3.428.025-1.134.017-2.226.043-3.275.077-1.05.033-1.964.067-2.742.101-.44.034-.762-.076-.965-.33-.186-.237-.28-.55-.28-.94v-1.269c0-.322-.025-.584-.076-.787a.93.93 0 0 0-.254-.533c-.118-.153-.296-.28-.533-.381a5.946 5.946 0 0 0-.965-.356l.28-.584a47.49 47.49 0 0 0 2.97.229c1.084.034 2.167.05 3.25.05 1.1-.016 2.175-.042 3.225-.075 1.066-.051 2.04-.11 2.92-.178l.076-2.717zm26.025-4.038c-1.1.034-2.166.076-3.199.127-1.016.05-1.904.152-2.666.305l-.685-1.498c.338.067.787.118 1.345.152a17.1 17.1 0 0 0 1.6.025h.965c.338-.017.668-.025.99-.025l.94-.05c.287-.018.524-.035.71-.052V5.44c0-.575-.262-1.032-.787-1.37-.508-.356-1.303-.66-2.386-.915l.304-.685c.847.101 1.701.237 2.565.406.863.152 1.625.296 2.285.432-.068.304-.127.651-.178 1.04a8.43 8.43 0 0 0-.076 1.092v14.22c0 .524-.017 1.125-.051 1.802a81.079 81.079 0 0 1-.076 2.031c-.034.677-.076 1.32-.127 1.93a17.51 17.51 0 0 1-.178 1.498l-1.066.127a28.098 28.098 0 0 1-.102-1.092 30.3 30.3 0 0 1-.076-1.396c-.017-.491-.034-1-.05-1.524v-8.658zM95.19 7.369a21.782 21.782 0 0 1-1.981 4.291 25.45 25.45 0 0 1-2.818 3.91 26.068 26.068 0 0 1-3.403 3.301 20.893 20.893 0 0 1-3.757 2.438l-.56-.559a21.63 21.63 0 0 0 3.429-2.54 23.924 23.924 0 0 0 2.92-3.097c.88-1.1 1.633-2.234 2.26-3.402a19.252 19.252 0 0 0 1.447-3.479c-.254 0-.601.009-1.041.026-.424.017-.872.034-1.346.05l-1.346.051c-.423.017-.753.026-.99.026-.186 0-.432.017-.736.05-.288.017-.601.043-.94.077-.322.034-.652.067-.99.101-.339.034-.652.076-.94.127l-.99-1.6c.22.051.474.094.762.128l.889.101.939.05h.914c.626 0 1.287-.008 1.98-.024a40.85 40.85 0 0 0 2.083-.102c.694-.05 1.354-.11 1.98-.178a15.353 15.353 0 0 0 1.65-.304l.584.558zm23.765-3.021c.762.05 1.464.203 2.107.457a5.801 5.801 0 0 1 1.651.965c.457.389.812.837 1.066 1.345.271.491.407 1.024.407 1.6 0 .643-.153 1.236-.457 1.777a4.586 4.586 0 0 1-1.27 1.422c-.525.39-1.151.694-1.879.914-.728.22-1.523.33-2.387.33-.846 0-1.633-.11-2.361-.33a6.472 6.472 0 0 1-1.879-.914 4.717 4.717 0 0 1-1.244-1.422 3.727 3.727 0 0 1-.432-1.777c0-.593.136-1.151.407-1.676.27-.525.651-.982 1.142-1.371a6.04 6.04 0 0 1 1.727-.94 6.858 6.858 0 0 1 2.183-.431.793.793 0 0 0-.304-.483c-.153-.135-.424-.27-.813-.406l.229-.457c.423.085.829.153 1.218.203.407.051.83.119 1.27.203l-.203.508a4.045 4.045 0 0 0-.178.483zm3.377 4.265c0-.474-.11-.922-.33-1.345a3.352 3.352 0 0 0-.863-1.143 3.972 3.972 0 0 0-1.27-.762 4.074 4.074 0 0 0-1.574-.304c-.576 0-1.117.101-1.625.304-.491.186-.923.44-1.295.762a3.66 3.66 0 0 0-.889 1.143 3.072 3.072 0 0 0-.304 1.345c0 .508.101.974.304 1.397.22.423.517.795.889 1.117.372.305.804.542 1.295.71.508.17 1.049.255 1.625.255a4.88 4.88 0 0 0 1.6-.254c.49-.17.914-.406 1.269-.711a3.43 3.43 0 0 0 .863-1.117c.203-.423.305-.889.305-1.397zm4.139 17.393c-1.067-.05-2.201-.085-3.403-.102a254.518 254.518 0 0 0-3.58-.025 193.8 193.8 0 0 0-3.351.076 80.57 80.57 0 0 0-2.717.127c-.474.034-.813-.068-1.016-.305-.203-.22-.304-.499-.304-.838V22.3c0-.39-.026-.703-.077-.94a1.021 1.021 0 0 0-.279-.609c-.152-.17-.372-.305-.66-.406a10.19 10.19 0 0 0-1.193-.381l.279-.635c.254.034.542.068.863.102.339.034.677.076 1.016.127.338.034.677.076 1.015.127.339.033.635.067.889.101-.034.203-.068.491-.101.863-.017.356-.026.694-.026 1.016v2.463c0 .372.085.61.254.71.169.12.499.187.99.204.644.017 1.473.017 2.489 0 1.032-.017 2.107-.05 3.224-.102a97.237 97.237 0 0 0 3.276-.203 35.524 35.524 0 0 0 2.716-.304l-.304 1.574zm-6.729-8.1c0 .627-.034 1.329-.101 2.108a27.455 27.455 0 0 1-.254 2.082l-1.168.152a63.238 63.238 0 0 1-.102-.99 22.02 22.02 0 0 0-.076-1.092l-.051-1.016V16.611c-.761.017-1.515.043-2.26.076-.744.017-1.447.034-2.107.051-.66.017-1.253.043-1.777.076-.525.017-.931.034-1.219.051-.66.034-1.32.085-1.981.153-.643.05-1.278.118-1.904.203l-.66-1.778c.796.085 1.549.153 2.26.204.711.033 1.464.067 2.26.101.423.017.981.025 1.675.025h2.26l2.565-.05c.897-.034 1.752-.06 2.564-.077.829-.016 1.583-.033 2.26-.05.694-.034 1.252-.06 1.676-.076a90.155 90.155 0 0 0 3.326-.204 44.642 44.642 0 0 0 2.945-.33l-.254 1.65a78.705 78.705 0 0 0-2.514-.075c-.981-.017-2.048-.034-3.199-.051-.474 0-1.075.008-1.802.025-.711 0-1.499.017-2.362.05v1.321zM15.438 50.49a5.707 5.707 0 0 1 1.751.508c.542.237 1 .542 1.372.914.389.373.685.796.888 1.27.22.457.33.948.33 1.472 0 .61-.135 1.168-.406 1.676a3.95 3.95 0 0 1-1.143 1.346 4.932 4.932 0 0 1-1.7.889c-.644.22-1.355.33-2.134.33-.761 0-1.472-.11-2.132-.33a4.963 4.963 0 0 1-1.676-.89A4.068 4.068 0 0 1 9.47 56.33a3.505 3.505 0 0 1-.407-1.676c0-.541.11-1.05.33-1.523.238-.491.56-.923.965-1.295a5.02 5.02 0 0 1 1.448-.914 6.302 6.302 0 0 1 1.828-.457c-.068-.322-.423-.593-1.067-.813l.381-.736 1.397.305c.541.101 1.024.194 1.447.279a4.407 4.407 0 0 0-.355.99zm1.904 4.063c0-.423-.076-.813-.229-1.168a2.903 2.903 0 0 0-1.574-1.6 2.87 2.87 0 0 0-1.143-.228c-.406 0-.787.076-1.142.228a2.97 2.97 0 0 0-.94.635 2.9 2.9 0 0 0-.634.965 2.933 2.933 0 0 0-.229 1.168c0 .423.076.812.229 1.168.152.355.364.66.635.914.27.27.583.482.939.635.355.152.736.228 1.143.228.406 0 .787-.076 1.142-.228.373-.153.686-.364.94-.635.27-.254.482-.559.634-.914.153-.356.229-.745.229-1.168zm-5.408-16.834h-.94c-.338 0-.677.008-1.015.025-.339 0-.67.009-.99.026H8.2c-.118 0-.288.008-.508.025-.22 0-.465.017-.736.05-.27.018-.542.043-.812.077-.271.017-.517.042-.737.076l-1.04-1.904c.202.05.456.101.76.152.306.034.619.076.94.127.339.034.66.068.965.102.322.017.593.025.813.025.203 0 .482-.008.838-.025.355-.017.736-.043 1.142-.077.423-.05.846-.093 1.27-.127.44-.05.854-.101 1.244-.152l-.406 1.6zm3.757 2.767H14.27c-.56 0-1.168.009-1.829.026-.643.017-1.311.034-2.006.05l-2.005.051c-.644.017-1.236.034-1.778.051-.541.017-.99.034-1.345.05-.203.018-.474.043-.813.077-.321.017-.66.042-1.015.076-.356.034-.694.068-1.016.102-.322.034-.584.067-.787.101L.71 38.988c.22.051.5.102.838.153.338.034.685.076 1.04.127.356.033.703.067 1.042.101.338.017.626.026.863.026.576 0 1.337-.017 2.285-.051a262.6 262.6 0 0 0 3.073-.127c1.1-.068 2.192-.144 3.275-.229 1.1-.101 2.065-.228 2.894-.38l-.33 1.878zM13.89 45.54c0 .559-.136 1.092-.407 1.6-.27.49-.643.922-1.117 1.295a5.585 5.585 0 0 1-1.7.888c-.644.22-1.338.33-2.083.33-.745 0-1.439-.11-2.082-.33a6.01 6.01 0 0 1-1.701-.888 4.557 4.557 0 0 1-1.117-1.32 3.208 3.208 0 0 1-.407-1.575c0-.592.136-1.134.407-1.625a4.18 4.18 0 0 1 1.142-1.295 5.233 5.233 0 0 1 1.676-.863 6.876 6.876 0 0 1 2.082-.305c.779 0 1.49.11 2.133.33a5.28 5.28 0 0 1 1.701.914c.474.373.838.804 1.092 1.295.254.491.38 1.007.38 1.55zm-8.1-.127c0 .406.068.787.203 1.143.153.338.356.643.61.914.253.254.55.457.888.61.339.151.703.228 1.092.228.372 0 .728-.068 1.066-.204.339-.152.635-.355.89-.609.253-.254.448-.559.583-.914.152-.355.229-.745.229-1.168a2.57 2.57 0 0 0-.229-1.066 2.618 2.618 0 0 0-.584-.889 2.488 2.488 0 0 0-.863-.635 2.629 2.629 0 0 0-1.092-.228c-.796 0-1.464.262-2.006.787-.525.508-.787 1.185-.787 2.031zm13.838.178c.355-.017.745-.043 1.168-.076.423-.051.855-.102 1.295-.153.44-.05.872-.101 1.295-.152.44-.05.846-.11 1.218-.178l-.253 2.006c-.305-.017-.66-.025-1.067-.025h-3.707c-.017.304-.042.618-.076.94-.017.32-.042.642-.076.964a10.284 10.284 0 0 1-.178 1.498l-1.803.229a5.1 5.1 0 0 1-.076-.66 15.33 15.33 0 0 0-.076-.838l-.05-.89V37.517c0-.525-.246-.948-.737-1.27-.474-.338-1.27-.643-2.387-.914l.381-.94c.423.051.88.12 1.371.204.508.067 1.007.152 1.498.254.491.084.957.169 1.397.253.44.085.82.153 1.142.204a8.824 8.824 0 0 0-.101.558c-.034.22-.068.449-.102.686a42.8 42.8 0 0 1-.05.61 5.048 5.048 0 0 0-.026.405v2.641c.355-.017.745-.042 1.168-.076l1.295-.153c.44-.05.872-.101 1.295-.152.44-.068.846-.135 1.218-.203l-.253 2.006a18.998 18.998 0 0 0-1.041-.026H19.627v3.987zm18.154-6.805a46.912 46.912 0 0 0 4.52 2.108 69.874 69.874 0 0 0 4.875 1.726l-1.828 1.828c-.593-.338-1.236-.702-1.93-1.092a81.966 81.966 0 0 0-2.158-1.218c-.728-.407-1.473-.813-2.235-1.219-.744-.406-1.455-.804-2.132-1.193a21.408 21.408 0 0 1-4.418 3.351 33.617 33.617 0 0 1-4.952 2.31l-.66-.863a23.08 23.08 0 0 0 2.971-1.472 24.32 24.32 0 0 0 2.666-1.778 19.305 19.305 0 0 0 2.184-2.005 13.81 13.81 0 0 0 1.625-2.108c.203-.338.186-.6-.051-.787a6.002 6.002 0 0 0-.736-.457 6.795 6.795 0 0 0-.864-.432l.66-.787c.322.102.677.212 1.067.33.406.102.804.22 1.193.356.406.118.796.245 1.168.38.39.12.745.238 1.066.356-.287.491-.6.956-.939 1.397-.338.44-.702.863-1.092 1.27zm1.041 14.371c0 .457-.017.94-.05 1.447a45.698 45.698 0 0 1-.077 1.524c-.034.508-.076.99-.127 1.447-.05.474-.11.889-.177 1.244l-1.803.305a28.06 28.06 0 0 1-.102-1.092c-.017-.423-.033-.871-.05-1.346V48.713l-1.956.05-1.802.052c-.559.016-1.058.042-1.498.076-.44.017-.796.034-1.067.05-.643.051-1.337.11-2.082.178-.728.068-1.388.144-1.98.229l-.863-2.21c.761.085 1.574.162 2.437.23.88.05 1.701.092 2.463.126.423.017.956.026 1.6.026h2.158l2.412-.051c.846-.034 1.65-.06 2.412-.076.779-.017 1.49-.034 2.133-.051.66-.034 1.193-.06 1.6-.076a82.39 82.39 0 0 0 3.453-.229 67.601 67.601 0 0 0 3.148-.38l-.305 2.081a93.826 93.826 0 0 0-1.193-.05c-.44-.017-.923-.026-1.447-.026-.525-.017-1.067-.034-1.625-.05a55.413 55.413 0 0 0-3.377 0c-.677 0-1.422.016-2.235.05v4.494zM68.25 39.7a9.636 9.636 0 0 0-.99 0 27.583 27.583 0 0 0-2.31.102 34.2 34.2 0 0 1-1.042.076c-.17.017-.406.034-.71.05a27.274 27.274 0 0 0-2.032.204c-.355.034-.685.076-.99.127l-1.194-2.006a19.482 19.482 0 0 0 1.803.254l1.092.101c.372.017.694.026.965.026h1.676c.66-.017 1.362-.034 2.107-.051.745-.034 1.507-.076 2.285-.127.779-.05 1.515-.11 2.21-.178a3.324 3.324 0 0 0-.102.432c-.034.17-.077.355-.127.559a4.899 4.899 0 0 1-.127.533l-.076.38-.534 4.012c.17-.033.33-.05.483-.05.169-.017.321-.034.457-.051l-.178 1.6a51.622 51.622 0 0 0-2.64-.077 28.112 28.112 0 0 0-2.108.026c-.626.017-1.193.042-1.701.076-.491.034-.948.059-1.371.076 0 .135-.009.27-.026.406s-.025.271-.025.407v3.453c0 .237.068.423.203.558.136.119.296.17.483.153.609-.034 1.345-.11 2.208-.229.864-.118 1.778-.27 2.743-.457.981-.186 1.98-.398 2.996-.635a50.122 50.122 0 0 0 2.894-.812V37.516c0-.525-.245-.948-.736-1.27-.474-.338-1.27-.643-2.387-.914l.407-.94c.423.051.88.12 1.37.204.491.067.982.152 1.473.254.491.084.957.169 1.397.253.457.085.846.153 1.168.204a72.67 72.67 0 0 1-.127.558c-.034.22-.068.449-.102.686-.017.22-.034.423-.05.61a5.013 5.013 0 0 0-.026.405v6.754c.372-.017.77-.042 1.193-.076l1.32-.152 1.346-.152c.44-.068.855-.136 1.245-.204l-.254 2.057c-.305-.017-.66-.025-1.067-.025H76.96v5.865c0 .525-.017 1.134-.05 1.828a86.29 86.29 0 0 1-.077 2.057c-.034.677-.076 1.32-.127 1.93-.05.626-.102 1.125-.152 1.497l-1.752.229c-.034-.271-.068-.635-.102-1.092a53.71 53.71 0 0 0-.076-1.473c-.017-.507-.034-1.032-.05-1.574v-5.307c-.864.305-1.812.61-2.844.915-1.033.287-2.066.558-3.098.812a85.46 85.46 0 0 1-2.945.635c-.931.186-1.736.321-2.413.406-.964.102-1.642-.025-2.03-.38-.373-.356-.56-.94-.56-1.753v-3.351c0-.305-.025-.559-.076-.762a.91.91 0 0 0-.254-.508c-.118-.135-.304-.254-.558-.355a11.21 11.21 0 0 0-.99-.33l.431-.813c1.642.186 3.191.271 4.647.254a78.004 78.004 0 0 0 4.139-.152l.228-4.647zm23.106.178a6.739 6.739 0 0 1 2.03.61c.627.304 1.16.685 1.6 1.142.44.44.787.948 1.041 1.523.254.576.381 1.194.381 1.854a4.59 4.59 0 0 1-.482 2.082 5.048 5.048 0 0 1-1.295 1.65 6.299 6.299 0 0 1-1.93 1.092 7.51 7.51 0 0 1-2.437.38 7.825 7.825 0 0 1-2.489-.38 6.643 6.643 0 0 1-1.955-1.092 5.2 5.2 0 0 1-1.27-1.65 4.801 4.801 0 0 1-.456-2.082c0-.677.135-1.32.406-1.93.27-.61.643-1.142 1.117-1.6a6.062 6.062 0 0 1 1.727-1.117 6.448 6.448 0 0 1 2.183-.507c0-.254-.076-.457-.228-.61-.136-.152-.415-.296-.838-.431l.355-.762c.203.05.432.101.686.152l.762.152c.27.051.533.102.787.153.254.05.482.101.685.152a5.055 5.055 0 0 0-.203.559 6.175 6.175 0 0 0-.177.66zm2.59 5.053c0-.542-.094-1.041-.28-1.498a3.52 3.52 0 0 0-.787-1.22 3.504 3.504 0 0 0-1.143-.837 3.352 3.352 0 0 0-1.422-.305c-.507 0-.99.102-1.447.305-.44.203-.83.482-1.168.838-.338.338-.61.745-.812 1.219-.186.457-.28.956-.28 1.498 0 .541.094 1.05.28 1.523.203.457.474.855.812 1.194a3.87 3.87 0 0 0 1.168.761c.457.186.94.28 1.447.28a3.61 3.61 0 0 0 1.422-.28c.457-.186.847-.44 1.168-.761.322-.34.576-.737.762-1.194.186-.474.28-.982.28-1.523zm4.036-10.537c.407.05.855.118 1.346.203.491.067.982.152 1.473.254.491.084.956.169 1.396.253.457.085.855.153 1.194.204a8.785 8.785 0 0 0-.102.558c-.034.22-.068.449-.101.686-.017.22-.034.423-.051.61a5.086 5.086 0 0 0-.026.405v14.067c0 .525-.017 1.134-.05 1.828a42.68 42.68 0 0 1-.102 2.057 32.67 32.67 0 0 1-.152 1.93c-.051.626-.11 1.125-.178 1.497l-1.676.229a21.72 21.72 0 0 1-.101-1.092c-.034-.457-.068-.948-.102-1.473a755.34 755.34 0 0 1-.051-1.574V37.516c0-.525-.254-.948-.761-1.27-.491-.338-1.295-.643-2.413-.914l.457-.94zm25.823 12.619c.812-.068 1.591-.136 2.336-.203.761-.085 1.447-.17 2.056-.254l-.508 1.93a32.441 32.441 0 0 0-1.98-.051c-.762 0-1.574.008-2.438.025-.846.017-1.718.034-2.615.05-.88.018-1.709.043-2.488.077a62.66 62.66 0 0 0-2.082.076l-1.371.076c-.203.017-.474.043-.813.077-.338.033-.694.067-1.066.101a21.62 21.62 0 0 0-1.092.127c-.338.034-.618.068-.838.102l-.888-2.108c.237.05.541.102.914.153.372.033.753.076 1.142.126.406.034.796.068 1.168.102.373.017.686.025.94.025h.736l-.305-4.875a3.46 3.46 0 0 0-.101-.66 1.241 1.241 0 0 0-.28-.533c-.118-.152-.296-.27-.533-.355-.22-.102-.508-.17-.863-.204l.152-.863c.237 0 .525.009.864.025.338.017.685.043 1.041.077.372.017.744.042 1.117.076.372.034.711.068 1.015.101-.084.305-.118.694-.101 1.168.017.474.034.88.051 1.22l.228 4.747c.643-.034 1.329-.06 2.057-.076.728-.034 1.481-.076 2.26-.127l.38-5.002c.017-.27.009-.5-.025-.685a.906.906 0 0 0-.254-.508c-.118-.136-.296-.254-.533-.356a7.183 7.183 0 0 0-.914-.304l.33-.813c.491.05 1.109.11 1.853.178.762.068 1.524.178 2.286.33l-.127.559c-.034.203-.077.414-.127.634a7.35 7.35 0 0 1-.127.635 2.652 2.652 0 0 0-.051.457l-.406 4.723zm6.627 7.896a80.282 80.282 0 0 0-2.641-.076c-1.083-.017-2.192-.034-3.326-.05-.474 0-1.05.008-1.727.025-.677 0-1.413.017-2.209.05-.778.017-1.582.043-2.412.077-.812.017-1.591.042-2.336.076-.745.017-1.422.042-2.031.076-.592.034-1.058.06-1.396.076-.644.034-1.329.085-2.057.153-.728.067-1.405.143-2.031.228l-.813-2.234c.762.084 1.566.16 2.412.228.864.05 1.684.093 2.463.127.423.017.948.026 1.574.026h2.057l2.285-.051c.796-.034 1.557-.06 2.285-.077.745-.016 1.431-.033 2.057-.05.626-.034 1.143-.06 1.549-.077a82.235 82.235 0 0 0 3.453-.228 67.692 67.692 0 0 0 3.148-.38l-.304 2.081zm-3.301-15.996a23.708 23.708 0 0 0-1.701-.05c-.677 0-1.405.008-2.184.025-.762 0-1.549.008-2.361.025-.813.017-1.583.042-2.311.076-.711.017-1.354.043-1.929.077-.576.016-1.016.033-1.321.05-.22.017-.499.043-.838.076-.338.017-.694.051-1.066.102l-1.066.102c-.339.033-.618.067-.838.101l-.889-2.107c.237.05.542.101.914.152l1.143.102c.389.033.77.067 1.142.101.389.017.711.026.965.026.592 0 1.405-.017 2.438-.051 1.032-.034 2.149-.076 3.351-.127 1.202-.068 2.421-.152 3.656-.254a67.582 67.582 0 0 0 3.377-.356l-.482 1.93zm15.361-.889a6.57 6.57 0 0 1 1.955.584 5.572 5.572 0 0 1 1.524 1.067c.44.406.778.88 1.015 1.422.237.524.356 1.083.356 1.676 0 .677-.153 1.303-.457 1.878a4.928 4.928 0 0 1-1.27 1.524c-.541.423-1.185.761-1.929 1.016a7.678 7.678 0 0 1-2.387.355 7.579 7.579 0 0 1-2.361-.355c-.728-.255-1.355-.593-1.879-1.016a5.087 5.087 0 0 1-1.245-1.524 4.151 4.151 0 0 1-.431-1.878c0-.627.127-1.21.381-1.752a4.564 4.564 0 0 1 1.066-1.473 5.767 5.767 0 0 1 1.65-1.066 6.998 6.998 0 0 1 2.108-.508.762.762 0 0 0-.279-.508c-.136-.136-.398-.271-.788-.406l.407-.762c.186.034.406.076.66.127l.762.152.812.152c.271.051.508.102.711.153-.051.17-.118.347-.203.533-.068.186-.127.39-.178.61zm2.311 4.647c0-.491-.093-.948-.28-1.371a3.277 3.277 0 0 0-.761-1.117 3.342 3.342 0 0 0-1.092-.762 3.128 3.128 0 0 0-1.32-.28c-.474 0-.923.094-1.346.28-.406.186-.77.44-1.092.762-.305.304-.55.677-.736 1.117a3.37 3.37 0 0 0-.28 1.37c0 .509.094.974.28 1.397.186.407.431.762.736 1.067.322.304.686.541 1.092.71.423.17.872.255 1.346.255.474 0 .922-.085 1.345-.254.423-.17.787-.407 1.092-.711.322-.305.567-.66.736-1.067.187-.423.28-.888.28-1.396zm5.687 7.871a78.565 78.565 0 0 1-3.25.66c-1.117.203-2.226.39-3.326.559-1.1.169-2.158.321-3.174.457a83.954 83.954 0 0 1-2.742.28c-.169.016-.415.041-.736.075-.322.017-.677.051-1.067.102a29.5 29.5 0 0 0-1.142.127c-.373.034-.703.076-.991.127l-1.294-2.158c.27.05.592.093.964.127l1.143.101 1.117.05h.889a83.81 83.81 0 0 0 7.16-.558c2.37-.288 4.52-.643 6.449-1.066V37.516c0-.525-.254-.948-.761-1.27-.491-.338-1.295-.643-2.413-.914l.432-.94c.406.051.855.12 1.346.204.491.067.982.152 1.472.254.491.084.957.169 1.397.253.457.085.855.153 1.193.204a8.864 8.864 0 0 0-.101.558c-.034.22-.068.449-.102.686-.017.22-.034.423-.051.61a4.965 4.965 0 0 0-.025.405v14.067c0 .525-.017 1.134-.051 1.828a43.992 43.992 0 0 1-.101 2.057c-.034.677-.085 1.32-.153 1.93-.051.626-.11 1.125-.177 1.497l-1.676.229a22.76 22.76 0 0 1-.102-1.092 53.672 53.672 0 0 0-.076-1.473 755.34 755.34 0 0 1-.051-1.574v-4.494zm23.182-6.601a65.525 65.525 0 0 0 3.072 2.92 45.926 45.926 0 0 0 3.479 2.818l-1.854 1.828a426.995 426.995 0 0 1-2.64-3.149c-.915-1.1-1.846-2.183-2.793-3.25a23.198 23.198 0 0 1-3.073 3.657c-1.168 1.134-2.513 2.234-4.037 3.3l-.736-.685a20.707 20.707 0 0 0 2.742-2.564 26.272 26.272 0 0 0 2.209-2.895 21.45 21.45 0 0 0 1.676-3.022 18.482 18.482 0 0 0 1.092-2.996c.084-.27.11-.448.076-.533a1.076 1.076 0 0 0-.153-.33c-.118-.135-.321-.288-.609-.457-.288-.17-.618-.339-.99-.508l.482-.761c.694.169 1.456.38 2.285.634.83.237 1.575.466 2.235.686a27.031 27.031 0 0 1-1.092 2.767c-.389.864-.846 1.71-1.371 2.54zm5.992-9.547c.406.05.855.118 1.346.203.491.067.982.152 1.472.254.491.084.957.169 1.397.253.457.085.855.153 1.193.204l-.127.558c-.034.22-.067.449-.101.686-.017.22-.034.423-.051.61a4.965 4.965 0 0 0-.025.405v14.067c0 .525-.017 1.134-.051 1.828a42.68 42.68 0 0 1-.102 2.057c-.034.677-.076 1.32-.127 1.93-.05.626-.11 1.125-.177 1.497l-1.702.229c-.033-.271-.067-.635-.101-1.092a57.963 57.963 0 0 0-.076-1.473 755.34 755.34 0 0 1-.051-1.574V37.516c0-.525-.254-.948-.762-1.27-.491-.338-1.295-.643-2.412-.914l.457-.94zm28.463 10.511c0 .305-.017.66-.051 1.067-.017.389-.042.787-.076 1.193-.034.406-.076.796-.127 1.168a6.864 6.864 0 0 1-.127.863l-1.803.254a6.24 6.24 0 0 1-.076-.685c-.017-.271-.042-.55-.076-.838l-.051-.864v-9.546c0-.525-.245-.948-.736-1.27-.474-.338-1.27-.643-2.387-.914l.381-.94c.423.051.88.12 1.371.204.508.067 1.007.152 1.498.254.491.084.957.169 1.397.253.44.085.821.153 1.142.204a8.864 8.864 0 0 0-.101.558c-.034.22-.068.449-.102.686-.017.22-.034.423-.051.61a4.965 4.965 0 0 0-.025.405v4.926c.355-.034.745-.067 1.168-.101.423-.051.855-.102 1.295-.153.44-.05.872-.101 1.295-.152.44-.068.855-.136 1.244-.203l-.279 2.006a18.914 18.914 0 0 0-1.041-.026H208.127v1.041zm-9.674-1.6c.813.644 1.684 1.27 2.615 1.88a40.246 40.246 0 0 0 3.301 1.828l-1.853 1.625a104.464 104.464 0 0 1-2.463-2.184 123.745 123.745 0 0 0-2.514-2.234 26.207 26.207 0 0 1-3.91 3.097 31.701 31.701 0 0 1-4.012 2.184l-.685-.838a23.551 23.551 0 0 0 5.89-4.19 19.61 19.61 0 0 0 2.285-2.665 16.874 16.874 0 0 0 1.651-2.87c-.237 0-.516.009-.838.026a454.839 454.839 0 0 1-1.981.102c-.321.016-.6.025-.837.025-.187 0-.432.017-.737.05-.304.035-.635.068-.99.102-.339.034-.686.076-1.041.127-.355.05-.677.093-.965.127l-1.32-2.031c.203.034.474.076.812.127.339.034.694.068 1.067.101.389.034.761.06 1.117.077.372.016.702.025.99.025.61 0 1.236-.009 1.879-.026.66-.016 1.303-.05 1.93-.101.626-.05 1.227-.11 1.802-.178a23.573 23.573 0 0 0 1.6-.28l.787.712a13.973 13.973 0 0 1-1.498 2.869 19.24 19.24 0 0 1-2.082 2.514zm-2.463 7.11c.88 0 1.879-.017 2.996-.05 1.134-.035 2.26-.077 3.377-.128 1.134-.05 2.209-.11 3.225-.177a40.352 40.352 0 0 0 2.488-.229c-.051.423-.084.762-.101 1.016s-.026.524-.026.812v3.377c0 .491-.025 1.067-.076 1.727a8.017 8.017 0 0 1-.355 1.853l-1.778.33a15.901 15.901 0 0 1-.101-.736l-.051-.914-.051-.914a13.055 13.055 0 0 1-.025-.762v-4.215a44.817 44.817 0 0 0-2.133 0 99.719 99.719 0 0 0-4.647.203c-.761.051-1.472.102-2.132.153a22.55 22.55 0 0 0-1.575.152c-.49.068-1.015.144-1.574.229l-.939-2.006c.237.034.499.068.787.101l.939.102.94.05c.304.018.575.026.812.026z" fill="#fff"/>
</svg>
