<svg width="82" height="20" viewBox="0 0 82 20" fill="none" xmlns="http://www.w3.org/2000/svg">
    <g clip-path="url(#3hx8j1xuaa)" fill="#fff">
        <path d="m-.001 14.651.064-1.428h.366c.096 0 .096.45.419.898.27.387 1.23.74 2.474.74 1.484 0 2.776-.932 2.776-2.345 0-1.413-1.357-2.087-2.776-2.73C1.695 9.048.13 8.567.13 6.64c0-1.547 1.18-2.634 3.16-2.634 1.387 0 2.281.37 3 .803-.033.24-.097 1.045-.112 1.285H5.81c-.095 0-.095-.465-.419-.9-.271-.37-1.069-.703-2.185-.703-1.356 0-2.283.916-2.283 1.927 0 1.605 1.213 1.975 2.655 2.617 1.612.723 3.32 1.509 3.32 3.26 0 1.992-1.708 3.115-3.494 3.115-1.553-.008-2.67-.378-3.405-.758zM12.013 15.418c-2.17 0-3.51-1.462-3.446-3.656.062-2.193 1.595-3.655 3.67-3.655a3.012 3.012 0 0 1 2.17.85c.016.273-.14.703-.419.703-.24 0-.255-.32-.419-.545-.287-.32-.75-.578-1.453-.578-1.85 0-2.775 1.509-2.76 3.374.017 1.828 1.07 3.068 2.713 3.068a3.618 3.618 0 0 0 2.25-.82l.287.29a3.804 3.804 0 0 1-2.593.969zM19.278 8.096c1.595 0 2.872 1.138 2.933 3.05l-5.106.61.032-.482 4.085-.514c.127-.016.16-.08.14-.225-.127-1.22-1.1-1.968-2.217-1.968-1.596 0-2.49 1.493-2.474 3.21.017 1.799 1.021 3.18 2.713 3.18a3.619 3.619 0 0 0 2.25-.819l.28.289a3.797 3.797 0 0 1-2.601.984c-2.17 0-3.478-1.478-3.43-3.677.057-2.082 1.382-3.638 3.395-3.638zM26.391 14.792l-.08.29c-.812-.05-1.627-.05-2.44 0l-.08-.29c0-.08.99-.14 1.005-.755v-4.64a.379.379 0 0 0-.226-.392.372.372 0 0 0-.157-.03 2.03 2.03 0 0 0-.698.113l-.14-.29 1.451-.702c.128-.05.495.16.495.24v5.7c.01.616.87.675.87.756zm5.059 0-.08.29c-.79-.05-1.584-.05-2.375 0l-.096-.29c0-.08.862-.14.879-.755v-3.709c0-.835-.894-1.406-1.724-1.397-.783.017-1.469.421-1.978 1.012l-.16-.337c.542-.77 1.42-1.318 2.297-1.318 1.038 0 2.283.627 2.283 2.023v3.726c.012.614.954.673.954.755zM37.035 14.614c-.367.354-1.309.787-2.027.787-.478 0-1.1-.433-1.1-.915v-5.75h-1.102v-.335c.192-.033.862-.194 1.086-.53.207-.306.286-.997.366-1.59h.383v1.926h2.042v.53h-2.038v5.17c0 .466-.016.884.527.884.59-.017 1.17-.17 1.691-.45l.172.273zM38.407 14.726l.064-1.22h.28c.096 0 .08.37.383.771.287.369.941.642 1.771.642.99 0 1.851-.578 1.851-1.526 0-.818-.622-1.059-1.692-1.476-1.324-.515-2.584-.787-2.552-2.109.032-1.322 1.307-1.828 2.44-1.815a4.867 4.867 0 0 1 2.283.675c-.032.223-.096.866-.111 1.108h-.288c-.095 0-.08-.37-.383-.77-.288-.37-.926-.548-1.537-.548-.75 0-1.612.305-1.644 1.22-.032 1.076.926 1.189 2.027 1.59 1.257.466 2.217.884 2.217 1.992 0 1.428-1.387 2.135-2.617 2.135a4.876 4.876 0 0 1-2.492-.669zM60.73 4.546c0 .081-1.405.129-1.42.755v9.78h-.448l-.015-.033v.032l-6.749-9.507v8.463c.015.627 1.436.675 1.436.755l-.08.29c-.59-.05-2.68-.05-3.271 0l-.08-.29c0-.08 1.34-.128 1.356-.755V5.319c0-.61-1.356-.675-1.356-.755l.032-.322c.51.032 1.484.032 1.978 0l6.575 9.265V5.302c-.017-.626-1.404-.674-1.404-.755l.08-.305c.589.049 2.696.049 3.27 0l.096.304zM61.928 11.84c0-2.073 1.371-3.742 3.43-3.742 1.835 0 3.212 1.477 3.212 3.63 0 2.07-1.34 3.676-3.399 3.676-1.904-.003-3.244-1.416-3.244-3.564zm5.824.015c0-1.91-1.021-3.308-2.539-3.308-1.517 0-2.472 1.365-2.472 3.196 0 1.91.989 3.21 2.569 3.21 1.436-.002 2.444-1.27 2.444-3.1l-.002.002zM74.31 14.614c-.368.354-1.31.787-2.028.787-.477 0-1.1-.433-1.1-.915v-5.75H70.08v-.335c.191-.033.861-.194 1.085-.53.207-.306.286-.997.368-1.59h.382v1.926h2.043v.53h-2.043v5.17c0 .466-.016.884.527.884a3.806 3.806 0 0 0 1.69-.45l.176.273zM79.07 8.096c1.596 0 2.871 1.138 2.934 3.05l-5.106.61.032-.482 4.085-.514c.127-.016.16-.08.14-.225-.129-1.22-1.101-1.968-2.219-1.968-1.595 0-2.49 1.493-2.473 3.21.016 1.799 1.022 3.18 2.712 3.18a3.619 3.619 0 0 0 2.25-.819l.28.289a3.793 3.793 0 0 1-2.6.984c-2.17 0-3.478-1.478-3.43-3.677.055-2.082 1.378-3.638 3.395-3.638z"/>
    </g>
    <defs>
        <clipPath id="3hx8j1xuaa">
            <path fill="#fff" transform="translate(0 4)" d="M0 0h82v11.418H0z"/>
        </clipPath>
    </defs>
</svg>
