<svg width="118" height="18" viewBox="0 0 118 18" fill="none" xmlns="http://www.w3.org/2000/svg">
<path fill-rule="evenodd" clip-rule="evenodd" d="M3 4.08C3 5.07 3.73 6 5.2 6.89C6.58 7.65 7.96 8.41 9.33 9.19C10.82 10.23 11.56 11.44 11.56 12.83C11.56 14.22 10.98 15.21 9.82 15.98C8.8 16.66 7.52 17 6 17C5.56 17 4.92 16.87 4.08 16.61C3.24 16.35 2.61 16.22 2.18 16.22C1.63 16.22 1.37 16.47 1.39 16.99H0.77L0 12.05H0.64C1.85 14.82 3.59 16.2 5.84 16.2C6.73 16.2 7.46 15.96 8.04 15.47C8.62 14.98 8.91 14.34 8.91 13.53C8.91 12.46 8.2 11.51 6.78 10.65C5.48 9.91 4.17 9.17 2.86 8.45C1.47 7.45 0.77 6.28 0.77 4.92C0.77 3.75 1.22 2.8 2.13 2.08C3.04 1.36 4.15 1 5.49 1C7.25 1 8.55 1.19 9.38 1.58C10.47 2.07 11.02 2.94 11.02 4.18C11.02 4.52 10.87 4.82 10.57 5.08C10.27 5.34 9.94 5.47 9.58 5.47C8.86 5.47 8.41 5.16 8.22 4.54C8.08 3.97 7.94 3.4 7.78 2.82C7.47 2.19 6.82 1.87 5.83 1.87C5.06 1.87 4.39 2.07 3.83 2.46C3.27 2.85 2.98 3.39 2.98 4.07" fill="black"/>
<path fill-rule="evenodd" clip-rule="evenodd" d="M18.1401 5.44C18.4801 5.44 18.9701 5.54 19.6101 5.75C20.2501 5.95 20.7401 6.06 21.0801 6.06C21.4501 6.06 21.6901 5.86 21.8001 5.45H22.2101L22.1901 9.2H21.7801C21.5701 8.38 21.1601 7.71 20.5401 7.18C19.9201 6.65 19.2001 6.38 18.3801 6.38C17.2201 6.38 16.3201 6.76 15.6601 7.51C15.0001 8.26 14.6701 9.24 14.6701 10.43C14.6701 11.62 15.0001 12.73 15.6601 13.69C16.3801 14.75 17.3201 15.28 18.4801 15.28C19.9401 15.28 21.1801 14.41 22.1901 12.68L22.6001 12.88C22.1701 14.09 21.5601 15.06 20.7901 15.78C19.9101 16.6 18.8801 17.01 17.7101 17.01C16.2201 17.01 15.0101 16.46 14.1001 15.37C13.2501 14.34 12.8201 13.04 12.8201 11.47C12.8201 9.82 13.2901 8.42 14.2401 7.27C15.2401 6.06 16.5401 5.45 18.1401 5.45" fill="black"/>
<path fill-rule="evenodd" clip-rule="evenodd" d="M25.7001 11.14L30.8101 9.74C30.6101 8.6 30.4201 7.84 30.2201 7.46C29.8401 6.71 29.2301 6.33 28.3601 6.33C27.4101 6.33 26.7001 6.71 26.2101 7.48C25.8001 8.12 25.6001 8.94 25.6001 9.93C25.6001 10.34 25.6301 10.74 25.7001 11.13M33.1801 9.93L25.8701 12.02C26.4401 14.2 27.6401 15.28 29.4601 15.28C30.9401 15.28 32.2001 14.41 33.2201 12.68L33.6401 12.88C33.2001 14.09 32.5501 15.06 31.6801 15.8C30.7301 16.6 29.6501 17 28.4301 17C26.9501 17 25.7901 16.44 24.9601 15.31C24.2301 14.31 23.8601 13.04 23.8601 11.48C23.8601 9.8 24.2801 8.4 25.1301 7.28C26.0701 6.05 27.3601 5.44 28.9901 5.44C30.2801 5.44 31.2901 5.87 32.0201 6.74C32.6901 7.52 33.0701 8.59 33.1701 9.93" fill="black"/>
<path fill-rule="evenodd" clip-rule="evenodd" d="M34.9099 6.6C35.6799 6.4 36.8299 6.02 38.3499 5.47L38.3999 5.55V7.58C39.6499 6.16 40.8299 5.44 41.9599 5.44C42.7999 5.44 43.4999 5.73 44.0699 6.31C44.6399 6.89 44.9299 7.6 44.9299 8.46V15.22C44.9299 16.14 45.4399 16.61 46.4499 16.63V17.01H42.8399V8.76C42.8399 8.26 42.6699 7.82 42.3199 7.45C41.9799 7.08 41.5699 6.9 41.0899 6.9C40.4299 6.9 39.8599 7.07 39.3699 7.4C38.7799 7.77 38.4799 8.27 38.4799 8.91V15.32C38.4799 15.82 38.6799 16.17 39.0699 16.35C39.3299 16.48 39.7499 16.56 40.3199 16.58V17.01H36.3899V8.11C36.3899 7.32 36.0199 6.93 35.2799 6.93C35.1499 6.93 35.0199 6.95 34.8899 6.98V6.6H34.9099Z" fill="black"/>
<path fill-rule="evenodd" clip-rule="evenodd" d="M48.98 4.58L50.98 4.56V7.32H53.36V8.01H50.98V14.28C50.98 15.36 51.38 15.9 52.18 15.9C52.67 15.9 53.14 15.65 53.59 15.14L53.94 15.39C53.22 16.46 52.27 16.99 51.11 16.99C50.37 16.99 49.81 16.73 49.44 16.21C49.13 15.78 48.97 15.21 48.97 14.5V8.01H47.72V7.32H48.97V4.58H48.98Z" fill="black"/>
<path fill-rule="evenodd" clip-rule="evenodd" d="M56.48 6.21001C57.25 5.70001 58.15 5.45001 59.18 5.45001C60.16 5.45001 61.03 5.67001 61.8 6.11001C62.67 6.63001 63.11 7.32001 63.11 8.18001C63.11 8.48001 63 8.73001 62.78 8.93001C62.56 9.14001 62.29 9.24001 61.96 9.24001C61.63 9.24001 61.36 9.13001 61.12 8.92001C60.88 8.71001 60.76 8.46001 60.76 8.18001C60.76 8.07001 60.78 7.90001 60.83 7.69001C60.87 7.48001 60.9 7.31001 60.9 7.20001C60.9 6.82001 60.68 6.52001 60.23 6.29001C59.87 6.11001 59.46 6.02001 59 6.02001C58.43 6.02001 57.94 6.17001 57.54 6.46001C57.14 6.75001 56.94 7.16001 56.94 7.66001C56.94 8.35001 57.48 9.01001 58.57 9.65001C59.59 10.21 60.59 10.77 61.59 11.32C62.68 12.06 63.22 12.89 63.22 13.8C63.22 14.78 62.82 15.56 62.03 16.14C61.24 16.71 60.3 17 59.21 17C58.89 17 58.41 16.93 57.77 16.78C57.13 16.63 56.65 16.56 56.33 16.56C55.99 16.56 55.77 16.66 55.66 16.86H55.26V13.02H55.74C56.35 15.32 57.46 16.46 59.08 16.46C59.7 16.46 60.23 16.31 60.67 16.01C61.11 15.71 61.33 15.28 61.33 14.72C61.33 14 60.8 13.34 59.75 12.75C58.77 12.21 57.79 11.67 56.81 11.13C55.76 10.39 55.23 9.49001 55.23 8.43001C55.23 7.51001 55.65 6.77001 56.49 6.22001" fill="black"/>
<path fill-rule="evenodd" clip-rule="evenodd" d="M74.1501 6.09003C73.9001 5.80003 73.7201 5.59003 73.6001 5.45003V14.23C73.6001 15.03 73.7501 15.61 74.0401 15.95C74.3601 16.35 74.9401 16.56 75.7601 16.57V17H70.3301V16.57C71.2001 16.57 71.8001 16.38 72.1201 15.99C72.4101 15.65 72.5601 15.06 72.5601 14.23V4.37003C72.1201 3.91003 71.8001 3.62003 71.6201 3.49003C71.3001 3.30003 70.8701 3.20003 70.3301 3.19003V2.78003H74.2801L83.0801 13.97V5.40003C83.0801 4.61003 82.9201 4.07003 82.6101 3.78003C82.3001 3.49003 81.7201 3.29003 80.8701 3.19003V2.78003H86.3201V3.19003C85.4201 3.32003 84.8201 3.54003 84.5401 3.87003C84.2601 4.19003 84.1101 4.78003 84.1101 5.64003L84.0901 15.35C84.5801 15.84 84.8801 16.12 84.9901 16.19C85.3301 16.43 85.7101 16.56 86.1401 16.58V16.99H82.5801L74.1401 6.10003L74.1501 6.09003Z" fill="black"/>
<path fill-rule="evenodd" clip-rule="evenodd" d="M92.42 6.92C91.06 6.92 90.01 7.31 89.25 8.09C88.49 8.87 88.12 9.91 88.12 11.2C88.12 12.41 88.5 13.44 89.27 14.27C90.03 15.11 91.05 15.52 92.32 15.52C93.59 15.52 94.62 15.06 95.42 14.14C96.17 13.27 96.54 12.23 96.54 11.02C96.54 9.81 96.16 8.88 95.41 8.09C94.65 7.3 93.66 6.91 92.42 6.91M98.11 11.02C98.11 12.64 97.57 14.04 96.49 15.22C95.41 16.4 94.02 16.99 92.32 16.99C90.62 16.99 89.22 16.42 88.12 15.27C87.08 14.17 86.55 12.81 86.55 11.19C86.55 9.49 87.08 8.1 88.13 7.04C89.18 5.97 90.61 5.44 92.42 5.44C94.09 5.44 95.45 5.97 96.52 7.04C97.58 8.11 98.11 9.43 98.11 11.02Z" fill="black"/>
<path fill-rule="evenodd" clip-rule="evenodd" d="M101.58 4.58L103.58 4.56V7.32H105.96V8.01H103.58V14.28C103.58 15.36 103.98 15.9 104.78 15.9C105.27 15.9 105.74 15.65 106.19 15.14L106.54 15.39C105.82 16.46 104.87 16.99 103.71 16.99C102.97 16.99 102.41 16.73 102.04 16.21C101.73 15.78 101.57 15.21 101.57 14.5V8.01H100.32V7.32H101.57V4.58H101.58Z" fill="black"/>
<path fill-rule="evenodd" clip-rule="evenodd" d="M109.61 11.14L114.72 9.74C114.52 8.6 114.33 7.84 114.13 7.46C113.75 6.71 113.14 6.33 112.27 6.33C111.32 6.33 110.61 6.71 110.12 7.48C109.71 8.12 109.51 8.94 109.51 9.93C109.51 10.34 109.54 10.74 109.61 11.13M117.09 9.93L109.78 12.02C110.35 14.2 111.55 15.28 113.37 15.28C114.85 15.28 116.11 14.41 117.13 12.68L117.55 12.88C117.11 14.09 116.46 15.06 115.59 15.8C114.64 16.6 113.56 17 112.34 17C110.86 17 109.7 16.44 108.87 15.31C108.14 14.31 107.77 13.04 107.77 11.48C107.77 9.8 108.19 8.4 109.04 7.28C109.98 6.05 111.27 5.44 112.9 5.44C114.19 5.44 115.2 5.87 115.93 6.74C116.6 7.52 116.98 8.59 117.08 9.93" fill="black"/>
</svg>
