<svg width="98" height="98" viewBox="0 0 98 98" fill="none" xmlns="http://www.w3.org/2000/svg">
    <path fill-rule="evenodd" clip-rule="evenodd" d="m48.248 88.635-.017.004a1.145 1.145 0 0 1-.096.005c-.026 0-.148-.008-.185-.008-.035-.01-.154-.038-.178-.044l-.085-.029-.025-.014c-.02-.01-.1-.061-.14-.084a.886.886 0 0 0-.082-.082.866.866 0 0 0-.06-.099c-.008-.05-.035-.164-.04-.192-.077-.571-.787-.683-1.203-.489l-2.162 1.01c-.28.13-.561.258-.839.391-.006-.025-.015-.05-.02-.073l-.016-.071c-.01-.077-.015-.154-.023-.23a15.5 15.5 0 0 1-.06-1.687c.01-.463.046-.923.097-1.382 1.168.373 2.336.744 3.506 1.108.594.186.986-.288 1.003-.772.52-.676 1.515-.704 1.996.072.218.353.75.555 1.12.294l5.064-3.559-.332 5.477a13.054 13.054 0 0 1-4.484-1.16c-.299-.139-.76-.17-.993.128-.458.587-.993 1.32-1.746 1.486zm8.06-8.282c-1.95 1.372-3.902 2.743-5.853 4.114-.533-.47-1.224-.758-1.947-.728a2.919 2.919 0 0 0-2.17 1.124 511.72 511.72 0 0 1-3.682-1.164c-.392-.126-.934.148-1.008.572-.168.968-.27 1.948-.272 2.931 0 .862-.042 1.908.352 2.697.191.386.534.683.957.782.56.13 1.072-.166 1.56-.394l1.91-.891c.483.593 1.315.927 2.063.882 1.088-.063 1.917-.766 2.596-1.558 1.724.707 3.55 1.1 5.423 1.14.463.01.793-.384.82-.82l.484-7.98c.035-.593-.734-1.057-1.233-.707z" fill="#000"/>
    <path fill-rule="evenodd" clip-rule="evenodd" d="M61.91 22.728c.14 2.028.29 4.153.474 6.177L65 37.5l8.5 2.5s6.5 3 7.5 4.5.5 2.5.5 2.5-26 3-42.5 9.5a8.697 8.697 0 0 1-2.03.553c-.386.182-.713.333-.97.447-4.5 2-14.5 4-17 4s2.5-6 5.5-6 3.5-4 3.5-5.5-8-11-9-12-6.5-7.5-3.5-12c1.446-2.17 10.327-6.08 19.14-9.551C34.864 15.522 35 15 35 15l14.5-5 5-1 1.538.64c1.17.192 2.521.604 3.537 1.475l.925.385.138.968c.155.31.278.654.362 1.032.304 1.367.515 3.75.719 6.53L62 22l-.09.728z" fill="#282725"/>
    <path fill-rule="evenodd" clip-rule="evenodd" d="M59.994 49.225c-7.044 1.786-13.935 4.115-20.804 6.472-3.46 1.188-6.916 2.391-10.394 3.527-1.77.578-3.555 1.125-5.377 1.52-.878.189-1.764.347-2.657.442-.39.042-.786.092-1.178.079-.19-.006-.158.004-.332-.05l-.062-.017a.401.401 0 0 1-.082-.07s-.015-.106-.018-.095c.028-.151.062-.233.137-.37.183-.33.446-.59.715-.852a11.3 11.3 0 0 1 2.037-1.576c1.184-.718 2.469-1.258 3.63-2.014 1.221-.795 2.268-1.83 2.736-3.24.04-.12.063-.241.093-.362a125.43 125.43 0 0 0 14.756-3.954 127.24 127.24 0 0 0 14.36-5.805 125.441 125.441 0 0 0 7.717-4.013c.04-.023.073-.05.107-.076 2.77.055 5.403 1.15 7.935 2.2 2.067.858 4.341 1.876 6.026 3.385a8.405 8.405 0 0 1 1.505 1.746c-7.045.199-14.03 1.394-20.85 3.123zm-35.602-5.721-3.715-4.506c-2.077-2.52-4.756-5.267-5.012-8.707-.05-.675.005-1.329.17-1.976a.909.909 0 0 0 .322-.642c.063-.938.804-1.74 1.515-2.364.876-.77 1.854-1.437 2.828-2.076 2.069-1.355 4.26-2.514 6.495-3.568 2.223-1.048 4.492-1.994 6.76-2.938 2.427-1.012 4.856-2.02 7.312-2.959 2.474-.945 4.975-1.819 7.522-2.547 2.072-.593 4.138-1.096 6.292-1.036 1.785.05 3.876.581 4.984 2.14.32.452.443.973.508 1.517.078.655.142 1.31.215 1.966a332.181 332.181 0 0 0 2.605 18.506c-4.753 1.271-9.252 3.296-13.8 5.145a229.976 229.976 0 0 1-14.537 5.349c-2.522.832-5.06 1.615-7.61 2.36-.819-1.31-1.879-2.48-2.854-3.664zm4.186 7.414a7.428 7.428 0 0 0-.563-2.27 230.366 230.366 0 0 0 13.693-4.484 230.87 230.87 0 0 0 7.205-2.754c2.366-.95 4.71-1.957 7.077-2.903 2.448-.979 4.932-1.876 7.478-2.566l.043.25c.093.532.189 1.063.285 1.595a123.497 123.497 0 0 1-13.062 6.325 125.585 125.585 0 0 1-14.454 4.95 125.32 125.32 0 0 1-7.702 1.857zm54.45-4.025c-.897-2.477-2.864-4.235-5.098-5.526-1.104-.636-2.266-1.167-3.439-1.663-1.45-.616-2.91-1.23-4.41-1.717-1.532-.496-3.13-.84-4.744-.859a323.912 323.912 0 0 1-3.229-22.389c-.071-.663-.11-1.345-.274-1.993-.576-2.272-3.04-3.631-5.196-4.017-2.205-.395-4.47-.1-6.629.416-2.582.617-5.115 1.474-7.608 2.382-2.572.938-5.108 1.97-7.637 3.02-2.45 1.015-4.905 2.022-7.321 3.115-2.329 1.053-4.62 2.198-6.797 3.539a37.583 37.583 0 0 0-3.153 2.162c-.944.722-1.902 1.508-2.476 2.572-.21.39-.35.795-.43 1.22a.876.876 0 0 0-.238.373c-1.166 3.62.787 7.142 2.956 9.916 2.372 3.035 4.913 5.94 7.338 8.933.47.578.935 1.191 1.328 1.843.022.256.15.504.357.648.29.587.507 1.204.595 1.86.197 1.491-.4 2.698-1.478 3.6-.433.362-1.052.734-1.61 1.042-.61.337-1.236.647-1.85.978-1.472.793-3.031 1.828-4.001 3.219-.498.713-.756 1.697-.236 2.471.472.701 1.32.895 2.118.863 1.893-.077 3.803-.492 5.628-.974.317-.083.633-.173.95-.261-.267.346-.545.684-.818 1.03-.686.872-1.728 2.131-1.266 3.314.237.606.77.995 1.377 1.189.53.17 1.105.107 1.634.275.272.085.592.344.766.585.271.374.41.703.539 1.12.298.965.234 2.083.852 2.928.193.265.418.46.687.647.199.137.318.228.425.45.237.495.376 1.065.513 1.595.154.589.277 1.188.358 1.79.082.617.097 1.252.274 1.851.336 1.145 1.223 1.925 2.32 2.328 1.328.489 2.79.223 4.132-.056.592-.124 1.25-.298 1.85-.13.176.049.336.129.462.244a.606.606 0 0 1 .186.23l.016.028c.011.046.042.206.036.124.034.44.352.819.819.819.417 0 .853-.376.819-.82-.09-1.15-.99-2.046-2.117-2.253-1.3-.238-2.539.277-3.818.41-.949.098-2.004.018-2.678-.628-.714-.683-.62-1.986-.775-2.934-.1-.61-.235-1.215-.404-1.81-.168-.585-.34-1.23-.655-1.755a2.354 2.354 0 0 0-.645-.7c-.164-.12-.383-.243-.475-.377-.24-.343-.286-.86-.355-1.298-.146-.932-.42-1.893-.978-2.667-.3-.415-.66-.786-1.11-1.04-.528-.297-1.093-.374-1.687-.434-.227-.023-.52-.072-.672-.153a.504.504 0 0 1-.146-.103c-.005-.017-.026-.065-.022-.101.026-.246.212-.5.337-.705a8.44 8.44 0 0 1 .521-.756c.724-.943 1.565-1.81 2.04-2.914l.01-.026c2.46-.775 4.894-1.649 7.33-2.483 6.997-2.4 13.982-4.853 21.114-6.828a127.454 127.454 0 0 1 10.102-2.385c.707 3.023.957 6.137.719 9.236-.131 1.699-.434 3.365-.839 5.017-.406 1.66-.874 3.31-1.119 5.004-.274 1.909-.296 3.867.298 5.722.135.42.569.692 1.008.571.414-.113.707-.584.572-1.007-1.034-3.225.01-6.569.789-9.725.825-3.342 1.19-6.763.934-10.202a32.594 32.594 0 0 0-.75-4.908c3.284-.572 6.594-.986 9.929-1.165.886-.048 1.772-.079 2.66-.095a.86.86 0 0 0 .145-.018c.2.19.473.285.769.204.4-.11.723-.59.572-1.008z" fill="#000"/>
</svg>
